<svg xmlns="http://www.w3.org/2000/svg" xmlns:xlink="http://www.w3.org/1999/xlink" width="316" zoomAndPan="magnify" viewBox="0 0 236.87999 62.999997" height="84" preserveAspectRatio="xMidYMid meet" version="1.0"><defs><g/><clipPath id="a0f95aa38e"><path d="M 4 16 L 63 16 L 63 48 L 4 48 Z M 4 16 " clip-rule="nonzero"/></clipPath><clipPath id="421a4a1369"><path d="M 0 25.558594 L 44.039062 -0.113281 L 65.558594 36.800781 L 21.519531 62.472656 Z M 0 25.558594 " clip-rule="nonzero"/></clipPath><clipPath id="3e05f6a38b"><path d="M 0 25.558594 L 44.039062 -0.113281 L 65.558594 36.800781 L 21.519531 62.472656 Z M 0 25.558594 " clip-rule="nonzero"/></clipPath><clipPath id="774a921058"><path d="M 5 17 L 57 17 L 57 45 L 5 45 Z M 5 17 " clip-rule="nonzero"/></clipPath><clipPath id="2e030efb9f"><path d="M 0 25.558594 L 44.039062 -0.113281 L 65.558594 36.800781 L 21.519531 62.472656 Z M 0 25.558594 " clip-rule="nonzero"/></clipPath><clipPath id="5cd9d760f8"><path d="M 0 25.558594 L 44.039062 -0.113281 L 65.558594 36.800781 L 21.519531 62.472656 Z M 0 25.558594 " clip-rule="nonzero"/></clipPath><clipPath id="ceebbab66c"><path d="M 5 17 L 62 17 L 62 47 L 5 47 Z M 5 17 " clip-rule="nonzero"/></clipPath><clipPath id="04faa36b7d"><path d="M 0 25.558594 L 44.039062 -0.113281 L 65.558594 36.800781 L 21.519531 62.472656 Z M 0 25.558594 " clip-rule="nonzero"/></clipPath><clipPath id="3b13fbb7f1"><path d="M 0 25.558594 L 44.039062 -0.113281 L 65.558594 36.800781 L 21.519531 62.472656 Z M 0 25.558594 " clip-rule="nonzero"/></clipPath><clipPath id="b2f9829c61"><path d="M 21 21 L 62 21 L 62 46 L 21 46 Z M 21 21 " clip-rule="nonzero"/></clipPath><clipPath id="906ab1506f"><path d="M 0 25.558594 L 44.039062 -0.113281 L 65.558594 36.800781 L 21.519531 62.472656 Z M 0 25.558594 " clip-rule="nonzero"/></clipPath><clipPath id="8f966cee43"><path d="M 0 25.558594 L 44.039062 -0.113281 L 65.558594 36.800781 L 21.519531 62.472656 Z M 0 25.558594 " clip-rule="nonzero"/></clipPath></defs><g clip-path="url(#a0f95aa38e)"><g clip-path="url(#421a4a1369)"><g clip-path="url(#3e05f6a38b)"><path fill="#090909" d="M 62.65625 32.824219 C 63.058594 33.875 62.851562 34.863281 62.003906 35.941406 C 61.949219 36.03125 61.90625 36.09375 61.847656 36.136719 C 61.605469 36.339844 60.945312 36.992188 60.117188 37.824219 C 58.425781 39.5 56.121094 41.804688 55.074219 42.519531 C 54.757812 42.738281 54.433594 42.964844 54.09375 43.207031 C 53.15625 43.871094 52.179688 44.558594 51.15625 45.15625 C 49.078125 46.367188 47.3125 46.871094 45.621094 46.742188 C 44.050781 46.617188 42.40625 46.40625 41.089844 45.652344 C 39.78125 44.914062 38.890625 43.667969 38.027344 42.464844 C 37.953125 42.355469 37.875 42.246094 37.792969 42.144531 C 36.320312 40.101562 34.964844 38.152344 33.667969 36.191406 C 33.1875 37.539062 32.492188 38.808594 31.824219 40.054688 L 31.75 40.191406 C 31.511719 40.644531 31.257812 41.109375 31.023438 41.574219 C 30.925781 41.785156 30.816406 42 30.707031 42.214844 C 30.480469 42.6875 30.222656 43.210938 29.929688 43.710938 C 29.71875 44.113281 29.457031 44.523438 29.128906 44.984375 C 29.078125 45.082031 29.023438 45.183594 28.964844 45.265625 C 28.820312 45.582031 28.621094 45.898438 28.386719 46.164062 C 28.144531 46.433594 27.875 46.671875 27.597656 46.835938 C 27.507812 46.886719 27.429688 46.933594 27.355469 46.964844 C 26.613281 47.292969 25.828125 47.210938 25.230469 47.113281 C 24.761719 47.152344 24.21875 47.121094 23.597656 47 C 21.996094 46.824219 20.371094 46.425781 18.796875 46.03125 L 18.0625 45.851562 C 16.257812 45.40625 14.386719 44.953125 12.625 44.257812 C 11.554688 44.109375 10.480469 43.332031 9.898438 42.269531 L 9.890625 42.257812 C 9.164062 41.234375 8.539062 40.121094 7.933594 39.039062 C 7.730469 38.675781 7.523438 38.316406 7.324219 37.953125 C 6.914062 37.253906 6.476562 36.503906 5.945312 35.585938 C 5.828125 35.386719 5.691406 35.171875 5.574219 34.992188 L 5.570312 34.984375 C 5.308594 34.574219 5.039062 34.15625 4.847656 33.707031 C 4.570312 33.308594 4.414062 32.742188 4.453125 32.265625 C 4.476562 31.984375 4.597656 31.773438 4.71875 31.558594 C 4.796875 31.433594 4.875 31.304688 4.945312 31.183594 L 5.007812 31.089844 C 5.039062 31.023438 5.074219 30.964844 5.113281 30.910156 C 5.121094 30.882812 5.128906 30.855469 5.128906 30.816406 C 5.160156 30.730469 5.214844 30.664062 5.285156 30.621094 L 5.300781 30.613281 L 5.335938 30.570312 C 5.355469 30.546875 5.371094 30.527344 5.382812 30.507812 C 6.101562 28.988281 7.011719 27.519531 7.886719 26.109375 L 8.058594 25.824219 C 8.199219 25.601562 8.328125 25.382812 8.460938 25.167969 C 8.886719 24.472656 9.292969 23.746094 9.691406 23.046875 L 9.695312 23.03125 C 10.425781 21.738281 11.183594 20.40625 12.0625 19.183594 C 12.207031 18.664062 12.511719 18.265625 12.972656 17.996094 C 14.082031 17.347656 15.800781 17.585938 16.738281 17.789062 C 18.265625 17.917969 19.777344 18.242188 21.226562 18.566406 L 21.257812 18.574219 C 21.535156 18.632812 21.808594 18.695312 22.085938 18.757812 C 23.546875 19.074219 25.023438 19.335938 26.542969 19.613281 C 26.675781 19.640625 26.808594 19.667969 26.945312 19.703125 L 26.96875 19.703125 C 27.03125 19.710938 27.09375 19.710938 27.15625 19.722656 L 27.214844 19.722656 L 27.265625 19.726562 C 27.324219 19.730469 27.386719 19.738281 27.445312 19.738281 L 27.46875 19.738281 C 27.863281 19.648438 28.421875 19.847656 28.714844 20.007812 C 29.003906 20.164062 29.210938 20.375 29.332031 20.640625 C 29.492188 20.757812 29.609375 20.960938 29.691406 21.097656 L 29.695312 21.109375 C 29.722656 21.152344 29.738281 21.179688 29.75 21.203125 L 29.800781 21.269531 C 29.996094 21.5625 30.222656 21.890625 30.394531 22.246094 C 30.835938 22.902344 31.207031 23.621094 31.578125 24.316406 L 31.605469 24.359375 C 31.851562 24.824219 32.066406 25.238281 32.296875 25.628906 C 32.359375 25.734375 32.414062 25.832031 32.480469 25.945312 C 33.199219 25.269531 33.945312 24.679688 34.542969 24.203125 L 34.558594 24.195312 C 34.703125 24.074219 34.839844 23.972656 34.960938 23.878906 C 36.539062 22.609375 38.410156 21.121094 40.296875 19.703125 C 41.347656 18.914062 42.28125 18.230469 43.164062 17.609375 C 43.21875 17.566406 43.28125 17.53125 43.335938 17.488281 C 43.574219 17.3125 43.835938 17.136719 44.097656 16.984375 C 44.628906 16.675781 45.09375 16.542969 45.550781 16.570312 C 45.585938 16.570312 45.625 16.574219 45.65625 16.589844 C 46.992188 16.089844 48.390625 16.644531 49.523438 17.097656 C 50.296875 17.40625 51.09375 17.785156 51.894531 18.21875 C 52.011719 18.28125 52.136719 18.347656 52.261719 18.402344 C 52.804688 18.671875 53.355469 18.957031 53.722656 19.425781 C 54.707031 20.171875 55.375 21.234375 56.015625 22.253906 C 56.136719 22.441406 56.25 22.621094 56.371094 22.804688 C 57.398438 24.386719 58.5 26.09375 59.597656 27.816406 C 59.890625 28.28125 60.214844 28.734375 60.550781 29.230469 C 61.34375 30.371094 62.179688 31.566406 62.65625 32.824219 Z M 62.65625 32.824219 " fill-opacity="1" fill-rule="nonzero"/></g></g></g><g clip-path="url(#774a921058)"><g clip-path="url(#2e030efb9f)"><g clip-path="url(#5cd9d760f8)"><path fill="#ff5757" d="M 26.8125 22.0625 C 26.925781 21.972656 26.992188 21.910156 27.066406 21.855469 C 27.085938 21.890625 27.128906 21.925781 27.160156 21.953125 C 27.21875 21.875 27.261719 21.789062 27.320312 21.710938 L 27.328125 21.703125 L 27.332031 21.691406 C 27.355469 21.628906 27.382812 21.554688 27.410156 21.480469 C 27.359375 21.453125 27.304688 21.425781 27.234375 21.382812 C 27.332031 21.328125 27.398438 21.265625 27.460938 21.230469 C 27.464844 21.214844 27.453125 21.199219 27.457031 21.183594 C 27.484375 20.863281 27.140625 20.457031 24.15625 20.078125 C 23.917969 20.050781 23.714844 20.019531 23.59375 19.996094 C 22.621094 19.8125 21.628906 19.597656 20.757812 19.402344 L 20.5 19.34375 C 20.402344 19.316406 20.300781 19.304688 20.203125 19.28125 C 20.203125 19.28125 20.203125 19.28125 20.191406 19.277344 C 18.425781 18.902344 16.550781 18.613281 14.480469 18.414062 L 14.46875 18.410156 L 14.460938 18.417969 C 14.050781 18.480469 13.710938 18.597656 13.402344 18.773438 C 13.117188 18.941406 12.871094 19.167969 12.667969 19.4375 L 12.660156 19.441406 L 12.648438 19.449219 C 12.070312 20.558594 11.390625 21.644531 10.734375 22.683594 L 10.710938 22.707031 C 10.175781 23.558594 9.570312 24.519531 9.042969 25.484375 C 8.714844 26.070312 8.402344 26.675781 8.078125 27.285156 C 7.398438 28.570312 6.640625 30.019531 5.789062 31.324219 L 5.75 31.378906 L 5.78125 31.433594 C 5.863281 31.574219 5.996094 31.71875 6.148438 31.839844 L 6.175781 31.871094 L 6.210938 31.871094 C 6.734375 31.859375 7.253906 31.933594 7.710938 31.992188 L 7.785156 31.996094 C 7.949219 32.019531 8.105469 32.046875 8.261719 32.058594 C 9.175781 32.15625 10.125 32.320312 11.167969 32.542969 L 11.175781 32.535156 L 11.183594 32.53125 C 13.070312 32.671875 14.945312 33.101562 16.59375 33.765625 L 16.625 33.773438 C 16.960938 33.832031 17.3125 33.910156 17.71875 34.023438 L 17.730469 34.027344 C 17.757812 34.035156 17.785156 34.042969 17.804688 34.054688 L 17.867188 34.078125 L 17.933594 34.09375 C 18.011719 34.109375 18.097656 34.128906 18.183594 34.136719 C 18.683594 34.234375 19.265625 34.292969 19.757812 34.074219 C 19.757812 34.074219 19.785156 34.058594 19.785156 34.058594 L 19.792969 34.054688 C 20.03125 33.835938 20.222656 33.546875 20.414062 33.269531 L 20.515625 33.117188 C 20.574219 33.023438 20.644531 32.9375 20.710938 32.851562 L 20.71875 32.847656 L 20.722656 32.832031 C 21.210938 31.648438 21.886719 30.515625 22.574219 29.425781 C 22.511719 29.378906 22.433594 29.308594 22.300781 29.199219 C 22.5 29.117188 22.625 29.03125 22.753906 29.015625 C 22.777344 29.015625 22.796875 29.027344 22.808594 29.042969 C 22.933594 28.839844 23.058594 28.652344 23.1875 28.449219 L 23.296875 28.277344 C 23.53125 27.917969 23.773438 27.53125 23.996094 27.167969 C 24.625 26.160156 25.277344 25.089844 25.980469 23.90625 C 26.113281 23.675781 26.25 23.445312 26.382812 23.191406 L 26.425781 23.109375 C 26.585938 22.816406 26.753906 22.507812 26.9375 22.199219 C 26.941406 22.1875 26.890625 22.136719 26.8125 22.0625 Z M 12.613281 21.773438 C 12.644531 21.710938 12.683594 21.652344 12.722656 21.582031 C 12.464844 21.160156 12.527344 20.664062 12.769531 20.257812 C 12.703125 20.140625 12.628906 20.035156 12.589844 19.90625 C 12.578125 19.863281 12.707031 19.789062 12.777344 19.726562 C 12.84375 19.800781 12.90625 19.871094 12.988281 19.964844 C 13.164062 19.769531 13.394531 19.601562 13.636719 19.492188 C 13.859375 19.351562 14.125 19.265625 14.394531 19.25 C 15.128906 19.101562 15.898438 19.320312 16.101562 20.046875 C 16.265625 20.675781 15.902344 21.273438 15.363281 21.632812 C 14.742188 22.277344 13.621094 22.5 12.945312 21.839844 C 12.890625 21.871094 12.839844 21.902344 12.78125 21.921875 C 12.75 21.953125 12.601562 21.792969 12.613281 21.773438 Z M 17.359375 26.441406 C 17.367188 26.492188 17.269531 26.550781 17.214844 26.617188 C 17.152344 26.546875 17.058594 26.488281 17.023438 26.410156 C 17.011719 26.371094 17.09375 26.289062 17.171875 26.160156 C 17.257812 26.289062 17.34375 26.355469 17.359375 26.441406 Z M 15.867188 28.058594 C 15.753906 28.125 15.628906 28.195312 15.511719 28.253906 C 15.484375 28.269531 15.441406 28.210938 15.34375 28.164062 C 15.507812 28.066406 15.632812 27.996094 15.75 27.9375 C 15.769531 27.929688 15.828125 28.011719 15.867188 28.058594 Z M 10.699219 30.472656 C 10.019531 31.175781 8.660156 31.652344 7.851562 30.890625 C 7.59375 30.644531 7.46875 30.273438 7.484375 29.902344 C 7.457031 29.695312 7.46875 29.46875 7.539062 29.226562 C 7.847656 28.132812 9.382812 27.554688 10.371094 28.066406 C 11.304688 28.5625 11.410156 29.730469 10.699219 30.472656 Z M 11.605469 29.898438 C 11.539062 29.832031 11.574219 29.671875 11.566406 29.558594 C 11.667969 29.769531 11.761719 29.96875 11.769531 30 C 11.863281 30.042969 11.695312 29.996094 11.605469 29.898438 Z M 12.046875 27.007812 C 10.964844 27.378906 9.667969 26.757812 9.800781 25.484375 C 9.84375 25.109375 10.03125 24.753906 10.304688 24.457031 C 10.3125 24.449219 10.3125 24.449219 10.316406 24.4375 C 10.890625 23.820312 11.816406 23.457031 12.554688 23.703125 C 13.371094 23.976562 13.753906 24.914062 13.402344 25.574219 C 13.378906 25.65625 13.34375 25.738281 13.292969 25.8125 C 13.289062 25.828125 13.273438 25.835938 13.269531 25.851562 C 13.042969 26.40625 12.601562 26.8125 12.046875 27.007812 Z M 20.675781 30.648438 C 20.996094 31.679688 20.144531 32.527344 19.328125 32.992188 C 18.484375 33.472656 17.472656 33.382812 16.992188 32.433594 C 16.535156 31.53125 17.480469 30.746094 18.148438 30.308594 C 18.21875 30.265625 18.296875 30.257812 18.359375 30.265625 C 18.433594 30.210938 18.519531 30.160156 18.589844 30.121094 C 19.359375 29.730469 20.367188 29.636719 20.675781 30.648438 Z M 19.253906 28.410156 C 19.230469 28.425781 19.136719 28.328125 19.011719 28.238281 C 19.160156 28.148438 19.253906 28.085938 19.347656 28.066406 C 19.386719 28.054688 19.449219 28.160156 19.5 28.210938 C 19.421875 28.277344 19.347656 28.367188 19.253906 28.410156 Z M 16.792969 22.742188 C 17.03125 22.851562 17.257812 22.953125 17.492188 23.058594 C 17.417969 23.128906 17.324219 23.195312 17.191406 23.304688 C 17.023438 23.113281 16.871094 22.957031 16.71875 22.796875 C 16.753906 22.777344 16.789062 22.734375 16.792969 22.742188 Z M 18.683594 26.085938 C 18.667969 26.0625 18.804688 25.910156 18.835938 25.929688 C 19 25.984375 19.15625 26.070312 19.3125 26.140625 C 19.191406 26.214844 19.082031 26.289062 18.898438 26.394531 C 18.820312 26.277344 18.722656 26.195312 18.683594 26.085938 Z M 22.101562 29.621094 C 22.027344 29.613281 21.953125 29.542969 21.800781 29.464844 C 21.953125 29.386719 22.03125 29.320312 22.105469 29.324219 C 22.167969 29.335938 22.226562 29.429688 22.28125 29.488281 C 22.226562 29.535156 22.167969 29.613281 22.101562 29.621094 Z M 22.890625 26.898438 C 22.460938 27.785156 21.382812 28.445312 20.386719 28.222656 C 19.210938 27.957031 19.261719 26.617188 20.050781 25.957031 C 20.414062 25.382812 21.09375 24.964844 21.761719 24.878906 C 22.96875 24.726562 23.351562 25.964844 22.890625 26.898438 Z M 24.910156 23.136719 C 24.871094 23.171875 24.832031 23.207031 24.78125 23.234375 C 24.402344 23.714844 23.835938 24.082031 23.222656 24.074219 C 22.484375 24.070312 21.890625 23.492188 21.789062 22.78125 C 21.75 22.472656 21.808594 22.195312 21.953125 21.9375 C 21.914062 21.96875 21.871094 21.996094 21.824219 22.019531 C 21.800781 22.035156 21.726562 21.949219 21.601562 21.859375 C 21.757812 21.78125 21.847656 21.714844 21.941406 21.695312 C 21.964844 21.695312 22.003906 21.742188 22.042969 21.789062 C 22.425781 21.238281 23.171875 20.875 23.863281 20.855469 C 23.960938 20.847656 24.0625 20.835938 24.152344 20.828125 C 24.402344 20.835938 24.617188 20.945312 24.785156 21.09375 C 24.839844 21.128906 24.890625 21.160156 24.941406 21.199219 C 25.53125 21.710938 25.433594 22.632812 24.910156 23.136719 Z M 54.5625 29.175781 C 53.925781 28.328125 53.136719 27.289062 52.792969 26.707031 L 52.789062 26.695312 L 52.785156 26.6875 C 51.101562 24.542969 49.3125 22.160156 49.085938 21.789062 C 48.792969 21.347656 48.53125 20.976562 48.265625 20.625 C 48.105469 20.40625 47.945312 20.195312 47.773438 19.980469 C 47.554688 19.707031 47.34375 19.421875 47.144531 19.140625 C 47.09375 19.074219 47.039062 19 46.972656 18.910156 C 46.730469 18.574219 46.371094 18.058594 45.984375 17.816406 C 45.617188 17.585938 45.1875 17.695312 44.992188 17.796875 L 44.984375 17.800781 L 44.972656 17.808594 C 44.570312 18.078125 44.152344 18.34375 43.757812 18.609375 C 43.007812 19.09375 42.238281 19.601562 41.507812 20.132812 C 40.371094 20.96875 39.226562 21.859375 38.128906 22.710938 C 37.816406 22.953125 37.515625 23.183594 37.210938 23.421875 L 36.960938 23.613281 C 35.617188 24.640625 34.226562 25.710938 32.972656 26.886719 C 32.953125 26.898438 32.941406 26.917969 32.921875 26.941406 C 32.832031 27.027344 32.746094 27.101562 32.65625 27.1875 C 32.585938 27.25 32.527344 27.308594 32.464844 27.382812 C 32.425781 27.414062 32.402344 27.453125 32.363281 27.488281 C 31.175781 28.726562 30.375 30.144531 31.574219 31.632812 C 31.617188 31.691406 31.640625 31.746094 31.636719 31.804688 L 31.636719 31.84375 L 31.652344 31.871094 C 31.710938 31.953125 31.777344 32.027344 31.839844 32.109375 C 32.238281 32.617188 32.636719 33.121094 33.03125 33.617188 C 33.203125 33.832031 33.371094 34.058594 33.546875 34.277344 C 33.578125 34.3125 33.605469 34.359375 33.644531 34.40625 C 33.707031 34.496094 33.78125 34.582031 33.847656 34.671875 C 33.929688 34.777344 34.003906 34.886719 34.089844 34.988281 C 35.417969 36.726562 36.664062 38.425781 37.855469 40.140625 C 38.070312 40.449219 38.285156 40.78125 38.496094 41.101562 C 39.171875 42.125 39.867188 43.171875 40.742188 43.992188 L 40.785156 44.027344 L 40.84375 44.003906 C 42.042969 43.65625 43.226562 43.292969 44.351562 42.636719 C 44.40625 42.605469 44.464844 42.570312 44.519531 42.542969 C 45.59375 41.878906 51.542969 37.488281 54.472656 34.480469 C 54.347656 34.390625 54.253906 34.328125 54.160156 34.25 C 54.371094 34.128906 54.558594 33.949219 54.777344 33.902344 C 54.832031 33.894531 54.902344 33.914062 54.964844 33.960938 C 55.675781 33.171875 56.113281 32.519531 56.109375 32.109375 L 56.113281 32.097656 L 56.105469 32.089844 C 55.972656 31.59375 55.796875 31.050781 55.453125 30.46875 C 55.371094 30.246094 55 29.75 54.5625 29.175781 Z M 43.71875 18.949219 C 43.777344 18.867188 43.867188 18.800781 43.945312 18.734375 C 43.996094 18.796875 44.09375 18.871094 44.074219 18.914062 C 44.054688 19 43.972656 19.058594 43.878906 19.183594 C 43.800781 19.066406 43.707031 18.964844 43.71875 18.949219 Z M 37.644531 27.675781 C 37.757812 27.769531 37.835938 27.84375 37.910156 27.914062 C 37.742188 27.96875 37.574219 28.039062 37.410156 28.078125 C 37.378906 28.085938 37.324219 27.988281 37.273438 27.945312 C 37.386719 27.859375 37.503906 27.777344 37.644531 27.675781 Z M 36.085938 32.710938 C 35.746094 32.710938 35.4375 32.601562 35.160156 32.410156 C 35.046875 32.335938 34.945312 32.242188 34.855469 32.144531 C 34.757812 32.035156 34.664062 31.914062 34.585938 31.785156 C 34.53125 31.6875 34.476562 31.578125 34.4375 31.472656 C 34.410156 31.40625 34.394531 31.335938 34.375 31.265625 C 34.347656 31.136719 34.332031 31.007812 34.332031 30.867188 C 34.320312 30.828125 34.324219 30.792969 34.316406 30.761719 C 34.304688 30.660156 34.292969 30.5625 34.296875 30.46875 C 34.292969 30.339844 34.3125 30.210938 34.332031 30.085938 C 34.363281 29.9375 34.410156 29.78125 34.492188 29.640625 C 34.566406 29.503906 34.648438 29.382812 34.769531 29.269531 C 35.40625 28.613281 36.386719 28.652344 37.09375 29.140625 C 37.609375 29.320312 38.042969 29.804688 38.183594 30.332031 C 38.453125 31.308594 37.929688 32.363281 36.945312 32.65625 C 36.664062 32.738281 36.390625 32.757812 36.136719 32.71875 C 36.121094 32.714844 36.109375 32.710938 36.085938 32.710938 Z M 44.605469 38.652344 C 44.605469 38.792969 44.589844 38.929688 44.566406 39.070312 C 44.558594 39.417969 44.472656 39.773438 44.296875 40.074219 C 43.753906 41.046875 42.542969 41.316406 41.578125 40.828125 C 40.972656 40.511719 40.480469 39.910156 40.324219 39.242188 C 40.128906 38.359375 40.503906 37.558594 41.214844 37.035156 C 41.800781 36.613281 42.621094 36.496094 43.292969 36.761719 C 44.074219 37.078125 44.582031 37.8125 44.605469 38.652344 Z M 39.277344 28.511719 C 39.21875 28.652344 39.144531 28.789062 39.074219 28.921875 C 39.003906 28.847656 38.949219 28.773438 38.835938 28.640625 C 38.96875 28.527344 39.066406 28.449219 39.171875 28.375 C 39.171875 28.375 39.292969 28.480469 39.277344 28.511719 Z M 45.214844 31.007812 C 45.480469 31.988281 44.960938 33.039062 43.972656 33.335938 C 43.691406 33.414062 43.421875 33.433594 43.164062 33.394531 C 43.152344 33.390625 43.132812 33.402344 43.121094 33.398438 C 42.296875 33.386719 41.605469 32.726562 41.425781 31.953125 C 41.398438 31.828125 41.378906 31.699219 41.378906 31.558594 C 41.273438 30.988281 41.375 30.402344 41.804688 29.953125 C 42.441406 29.300781 43.421875 29.335938 44.128906 29.828125 C 44.636719 29.996094 45.070312 30.480469 45.214844 31.007812 Z M 42.75 24.007812 C 42.722656 23.882812 42.707031 23.75 42.707031 23.613281 C 42.597656 23.042969 42.699219 22.457031 43.128906 22.007812 C 43.765625 21.355469 44.746094 21.390625 45.453125 21.882812 C 45.96875 22.0625 46.402344 22.546875 46.542969 23.070312 C 46.8125 24.050781 46.289062 25.101562 45.300781 25.398438 C 45.023438 25.480469 44.75 25.496094 44.496094 25.457031 C 44.480469 25.453125 44.464844 25.464844 44.449219 25.460938 C 43.613281 25.445312 42.921875 24.785156 42.75 24.007812 Z M 50.089844 33.992188 C 49.214844 33.753906 48.640625 33.011719 48.445312 32.152344 C 48.207031 31.144531 48.667969 30.210938 49.65625 29.855469 C 49.976562 29.742188 50.351562 29.722656 50.707031 29.769531 C 51.238281 29.742188 51.78125 29.90625 52.207031 30.335938 C 52.542969 30.667969 52.753906 31.117188 52.839844 31.582031 C 52.839844 31.605469 52.851562 31.621094 52.847656 31.636719 C 52.933594 32.183594 52.824219 32.761719 52.492188 33.210938 C 51.941406 33.933594 50.964844 34.230469 50.089844 33.992188 Z M 53.457031 33.703125 C 53.40625 33.71875 53.324219 33.640625 53.164062 33.546875 C 53.453125 33.4375 53.636719 33.351562 53.828125 33.300781 C 53.867188 33.289062 53.9375 33.386719 53.992188 33.4375 C 53.8125 33.53125 53.644531 33.628906 53.457031 33.703125 Z M 53.757812 32.734375 C 53.769531 32.773438 53.667969 32.84375 53.597656 32.941406 C 53.515625 32.839844 53.414062 32.769531 53.414062 32.710938 C 53.425781 32.644531 53.515625 32.582031 53.574219 32.523438 C 53.636719 32.589844 53.71875 32.648438 53.757812 32.734375 Z M 53.757812 32.734375 " fill-opacity="1" fill-rule="nonzero"/></g></g></g><g clip-path="url(#ceebbab66c)"><g clip-path="url(#04faa36b7d)"><g clip-path="url(#3b13fbb7f1)"><path fill="#5ce1e6" d="M 22.308594 39.105469 C 21.691406 38.132812 21.054688 37.121094 20.570312 36.070312 L 20.554688 36.042969 L 20.523438 36.027344 C 19.769531 35.613281 19.015625 35.304688 18.363281 35.050781 L 18.351562 35.046875 L 18.335938 35.042969 C 17.503906 34.921875 16.730469 34.621094 16.230469 34.386719 L 16.21875 34.382812 L 16.203125 34.378906 C 14.570312 34.164062 12.882812 33.777344 11.1875 33.21875 L 11.171875 33.214844 L 11.160156 33.210938 C 10.140625 33.070312 9.132812 32.964844 8.167969 32.898438 C 7.863281 32.875 7.550781 32.882812 7.246094 32.882812 L 7.242188 32.875 C 6.914062 32.878906 6.589844 32.878906 6.261719 32.859375 L 6.226562 32.859375 L 6.191406 32.878906 C 5.925781 33.066406 5.777344 33.25 5.691406 33.449219 L 5.671875 33.496094 L 5.699219 33.539062 C 5.921875 33.867188 6.121094 34.242188 6.285156 34.566406 C 6.382812 34.757812 6.503906 34.980469 6.621094 35.179688 C 7.09375 35.992188 7.546875 36.769531 8 37.546875 C 8.148438 37.800781 8.304688 38.046875 8.449219 38.300781 L 8.644531 38.609375 C 9.242188 39.597656 9.855469 40.609375 10.363281 41.644531 L 10.371094 41.652344 L 10.375 41.664062 C 10.738281 42.1875 11.089844 42.566406 11.484375 42.863281 C 11.800781 43.101562 12.144531 43.253906 12.421875 43.371094 L 12.429688 43.378906 L 12.441406 43.382812 C 13.542969 43.644531 14.660156 43.972656 15.648438 44.265625 L 15.730469 44.285156 C 16.582031 44.539062 17.453125 44.792969 18.304688 45.007812 C 19.171875 45.230469 20.089844 45.417969 20.902344 45.589844 C 21.996094 45.816406 23.109375 46.046875 24.191406 46.351562 L 24.203125 46.355469 L 24.253906 46.363281 C 24.339844 46.371094 24.414062 46.375 24.488281 46.378906 C 24.546875 46.378906 24.617188 46.382812 24.695312 46.398438 C 25.027344 46.425781 25.363281 46.441406 25.542969 46.359375 C 25.566406 46.34375 25.59375 46.328125 25.609375 46.320312 C 25.925781 46.136719 25.898438 45.847656 25.832031 45.429688 C 25.820312 45.355469 25.804688 45.269531 25.792969 45.183594 C 25.792969 45.183594 25.785156 45.175781 25.789062 45.160156 L 25.792969 45.148438 C 25.792969 45.148438 25.777344 45.097656 25.773438 45.089844 L 25.765625 45.082031 L 25.761719 45.074219 C 25.457031 44.667969 25.210938 44.226562 24.984375 43.796875 C 24.328125 42.597656 23.84375 41.699219 23.386719 40.898438 C 23.066406 40.328125 22.703125 39.742188 22.34375 39.191406 Z M 10.050781 36.023438 C 10.042969 36.109375 10.019531 36.195312 9.96875 36.269531 C 9.773438 36.574219 9.304688 36.554688 9.007812 36.445312 C 8.972656 36.429688 8.941406 36.414062 8.898438 36.402344 C 8.859375 36.390625 8.832031 36.382812 8.796875 36.367188 C 8.109375 36.125 6.742188 35.085938 7.226562 34.21875 C 7.800781 33.191406 9.085938 34.011719 9.542969 34.695312 C 9.546875 34.703125 9.546875 34.703125 9.550781 34.710938 C 9.625 34.796875 9.699219 34.90625 9.773438 35.027344 C 10.035156 35.378906 10.179688 35.75 10.050781 36.023438 Z M 15.105469 41.222656 C 15.15625 41.273438 15.203125 41.316406 15.261719 41.351562 C 15.203125 41.316406 15.152344 41.265625 15.105469 41.222656 Z M 17.183594 40.757812 C 17.402344 41.414062 17.085938 42.171875 16.285156 42.007812 C 16.097656 41.964844 15.773438 41.769531 15.425781 41.492188 C 15.453125 41.5 15.480469 41.507812 15.5 41.519531 C 15.558594 41.34375 15.597656 41.25 15.632812 41.148438 C 15.449219 41.171875 15.269531 41.183594 15.085938 41.210938 C 14.441406 40.625 13.828125 39.859375 14 39.386719 C 14.007812 39.242188 14.066406 39.101562 14.222656 38.988281 C 14.773438 38.570312 15.652344 39.195312 16.074219 39.554688 C 16.578125 39.800781 17.015625 40.226562 17.183594 40.757812 Z M 24.113281 44.09375 C 24.160156 44.25 24.15625 44.40625 24.109375 44.550781 C 24.070312 44.78125 23.925781 44.996094 23.636719 45.121094 C 23.117188 45.351562 22.582031 44.996094 22.152344 44.640625 C 21.757812 44.425781 21.410156 44.113281 21.214844 43.757812 C 21.167969 43.679688 21.152344 43.605469 21.132812 43.535156 C 21.132812 43.535156 21.128906 43.527344 21.128906 43.527344 C 21.121094 43.496094 21.109375 43.457031 21.117188 43.429688 C 20.976562 42.925781 21.246094 42.382812 21.847656 42.394531 C 22.378906 42.398438 22.933594 42.730469 23.359375 43.101562 C 23.71875 43.375 24.003906 43.722656 24.113281 44.09375 Z M 60.816406 31.835938 L 60.714844 31.683594 L 60.695312 31.648438 C 60.644531 31.539062 60.371094 31.132812 60.085938 30.683594 C 60.242188 31.550781 58.71875 30.34375 58.1875 29.15625 C 57.542969 27.707031 58.160156 28.058594 58.816406 28.730469 L 58.765625 28.640625 L 58.757812 28.625 C 58.746094 28.605469 58.738281 28.589844 58.726562 28.570312 C 58.710938 28.546875 58.699219 28.527344 58.683594 28.515625 C 58.320312 27.953125 57.917969 27.324219 57.484375 26.640625 C 57.449219 26.683594 57.398438 26.734375 57.347656 26.789062 C 57.242188 26.652344 57.183594 26.570312 57.125 26.488281 C 57.179688 26.441406 57.246094 26.394531 57.300781 26.347656 C 56.703125 25.398438 56.046875 24.375 55.402344 23.347656 C 55.195312 23.011719 54.996094 22.671875 54.78125 22.304688 C 54.492188 21.808594 54.199219 21.289062 53.875 20.808594 C 53.648438 20.484375 53.324219 20.230469 52.929688 20.050781 C 52.714844 19.964844 52.519531 19.832031 52.308594 19.710938 C 52.214844 19.648438 52.121094 19.585938 52.015625 19.53125 C 51.402344 19.160156 50.773438 18.824219 50.15625 18.53125 C 50.011719 18.460938 49.863281 18.386719 49.714844 18.308594 C 48.910156 17.914062 47.996094 17.449219 47.085938 17.277344 L 46.875 17.238281 L 46.972656 17.425781 C 47.097656 17.65625 47.214844 17.878906 47.335938 18.105469 C 47.535156 18.488281 47.738281 18.875 47.957031 19.25 C 48.292969 19.828125 48.652344 20.402344 48.945312 20.886719 C 49.203125 21.25 49.445312 21.625 49.667969 21.964844 C 49.949219 22.386719 50.796875 23.480469 51.789062 24.742188 C 52.148438 25.199219 52.519531 25.671875 52.890625 26.148438 L 52.898438 26.164062 L 52.917969 26.175781 C 52.921875 26.183594 52.9375 26.1875 52.9375 26.1875 C 53.269531 26.519531 55.570312 29.21875 55.878906 29.707031 L 55.886719 29.722656 C 56.035156 29.859375 56.167969 30.003906 56.300781 30.148438 C 56.472656 30.34375 56.65625 30.539062 56.855469 30.703125 C 57.117188 30.925781 57.394531 31.105469 57.671875 31.28125 C 57.933594 31.445312 58.199219 31.617188 58.425781 31.8125 C 58.433594 31.820312 58.445312 31.824219 58.453125 31.832031 L 58.464844 31.859375 C 58.464844 31.859375 58.679688 31.945312 58.773438 31.984375 C 58.816406 31.996094 58.847656 32.011719 58.894531 32.03125 C 58.902344 32.027344 58.910156 32.019531 58.925781 32.023438 C 58.957031 32.019531 59 32.050781 59.035156 32.089844 C 59.167969 32.140625 59.308594 32.199219 59.441406 32.25 C 59.609375 32.316406 59.785156 32.378906 59.949219 32.433594 L 59.960938 32.4375 L 59.976562 32.441406 C 60.003906 32.449219 60.027344 32.449219 60.050781 32.46875 C 60.054688 32.476562 60.070312 32.480469 60.070312 32.480469 L 60.074219 32.488281 L 60.09375 32.503906 C 60.441406 32.640625 60.855469 32.808594 61.253906 33.03125 C 61.269531 33.035156 61.273438 33.042969 61.273438 33.042969 L 61.425781 32.921875 C 61.300781 32.546875 61.054688 32.1875 60.816406 31.835938 Z M 51.988281 22.414062 C 52.109375 23.441406 50.890625 22.558594 50.609375 22.257812 C 50.226562 21.835938 49.921875 21.335938 49.652344 20.835938 C 49.484375 20.527344 49.210938 20.019531 49.335938 19.652344 C 49.445312 19.320312 49.671875 19.363281 49.917969 19.546875 C 49.964844 19.519531 50.03125 19.515625 50.078125 19.558594 C 50.582031 19.941406 50.945312 20.445312 51.265625 20.972656 C 51.527344 21.382812 51.933594 21.917969 51.988281 22.414062 Z M 57.570312 29.058594 C 58.636719 31.269531 56.195312 29.8125 55.550781 28.246094 C 54.867188 26.585938 55.671875 26.984375 56.480469 27.726562 C 56.421875 27.890625 56.359375 28.042969 56.300781 28.207031 C 56.496094 28.175781 56.679688 28.152344 56.871094 28.121094 C 57.179688 28.46875 57.457031 28.820312 57.570312 29.058594 Z M 56.476562 27.742188 C 56.535156 27.800781 56.601562 27.855469 56.664062 27.925781 C 56.601562 27.855469 56.542969 27.796875 56.476562 27.742188 Z M 54.5 23.511719 C 54.132812 24.003906 53.546875 23.238281 53.328125 22.964844 C 52.867188 22.390625 52.316406 21.648438 52.292969 20.890625 C 52.292969 20.828125 52.339844 20.789062 52.402344 20.792969 C 53.078125 20.667969 53.664062 21.390625 54.03125 21.863281 C 54.304688 22.230469 54.859375 23.019531 54.5 23.511719 Z M 10.199219 24.65625 C 10.195312 24.632812 10.195312 24.613281 10.199219 24.597656 C 10.230469 24.554688 10.273438 24.507812 10.308594 24.464844 C 10.316406 24.460938 10.316406 24.460938 10.320312 24.445312 C 10.355469 24.402344 10.402344 24.363281 10.441406 24.316406 C 10.480469 24.339844 10.503906 24.359375 10.507812 24.382812 C 10.5 24.492188 10.410156 24.601562 10.339844 24.703125 C 10.316406 24.71875 10.199219 24.679688 10.199219 24.65625 Z M 23.761719 22.414062 C 23.695312 22.558594 23.632812 22.710938 23.542969 22.878906 C 23.414062 22.863281 23.328125 22.851562 23.25 22.839844 C 23.304688 22.691406 23.328125 22.527344 23.421875 22.414062 C 23.46875 22.351562 23.644531 22.410156 23.761719 22.414062 Z M 23.0625 44.15625 C 23.035156 44.230469 23.023438 44.328125 22.972656 44.359375 C 22.910156 44.394531 22.804688 44.375 22.632812 44.382812 C 22.722656 44.234375 22.757812 44.132812 22.824219 44.105469 C 22.890625 44.078125 22.980469 44.132812 23.0625 44.15625 Z M 23.527344 43.566406 C 23.496094 43.691406 23.464844 43.824219 23.414062 43.9375 C 23.402344 43.957031 23.277344 43.921875 22.964844 43.886719 C 23.09375 43.703125 23.15625 43.574219 23.257812 43.488281 C 23.304688 43.464844 23.429688 43.542969 23.527344 43.566406 Z M 51.605469 30.851562 C 51.476562 30.808594 51.363281 30.792969 51.332031 30.742188 C 51.300781 30.6875 51.351562 30.578125 51.375 30.492188 C 51.460938 30.523438 51.570312 30.53125 51.640625 30.585938 C 51.667969 30.617188 51.617188 30.726562 51.605469 30.851562 Z M 52.203125 31.074219 C 52.101562 31.238281 52.003906 31.414062 51.886719 31.574219 C 51.863281 31.613281 51.742188 31.589844 51.558594 31.59375 C 51.742188 31.34375 51.859375 31.183594 51.992188 31.035156 C 52.019531 30.996094 52.136719 31.054688 52.203125 31.074219 Z M 49.039062 31.222656 C 49.132812 31.285156 49.234375 31.34375 49.496094 31.507812 C 49.445312 31.558594 49.378906 31.667969 49.289062 31.695312 C 49.242188 31.714844 49.097656 31.644531 49.074219 31.589844 C 49.035156 31.480469 49.050781 31.34375 49.039062 31.222656 Z M 52.835938 31.574219 C 52.835938 31.597656 52.847656 31.613281 52.84375 31.628906 C 52.84375 31.628906 52.847656 31.636719 52.839844 31.640625 C 52.824219 31.636719 52.8125 31.632812 52.789062 31.636719 C 52.816406 31.621094 52.824219 31.59375 52.835938 31.574219 Z M 55.949219 27.324219 C 55.9375 27.402344 55.929688 27.488281 55.910156 27.617188 C 55.792969 27.578125 55.667969 27.558594 55.660156 27.527344 C 55.640625 27.457031 55.679688 27.339844 55.726562 27.300781 C 55.773438 27.261719 55.871094 27.308594 55.949219 27.324219 Z M 56.144531 28.917969 C 56.140625 28.992188 56.132812 29.078125 56.117188 29.15625 C 56.042969 29.070312 55.976562 28.96875 55.910156 28.878906 C 55.917969 28.875 55.917969 28.875 55.921875 28.859375 C 55.945312 28.835938 56.148438 28.90625 56.144531 28.917969 Z M 56.144531 28.917969 " fill-opacity="1" fill-rule="nonzero"/></g></g></g><g clip-path="url(#b2f9829c61)"><g clip-path="url(#906ab1506f)"><g clip-path="url(#8f966cee43)"><path fill="#ff914d" d="M 29.316406 22.242188 L 29.304688 22.226562 L 29.296875 22.207031 C 29.160156 22.054688 28.996094 21.878906 28.832031 21.714844 L 28.800781 21.675781 L 28.746094 21.683594 C 28.605469 21.707031 28.457031 21.773438 28.289062 21.867188 C 28.125 21.964844 27.996094 22.0625 27.933594 22.121094 L 27.917969 22.132812 L 27.90625 22.152344 C 27.648438 22.757812 27.3125 23.339844 26.984375 23.90625 L 26.914062 24.027344 C 26.859375 24.128906 26.804688 24.21875 26.75 24.324219 C 26.191406 25.316406 25.570312 26.296875 24.980469 27.25 L 24.875 27.429688 C 24.5625 27.9375 24.238281 28.445312 23.925781 28.953125 L 23.511719 29.628906 C 22.839844 30.722656 22.273438 31.636719 21.695312 32.558594 L 21.6875 32.5625 L 21.640625 32.660156 C 21.609375 32.714844 21.589844 32.761719 21.566406 32.820312 L 21.566406 32.835938 C 21.476562 33.027344 21.394531 33.203125 21.324219 33.382812 L 21.320312 33.398438 L 21.316406 33.410156 C 21.3125 33.542969 21.292969 33.671875 21.273438 33.800781 L 21.265625 33.863281 C 21.222656 34.25 21.175781 34.617188 21.21875 34.988281 C 21.257812 35.339844 21.386719 35.664062 21.511719 35.976562 L 21.542969 36.050781 L 21.550781 36.0625 C 22.203125 36.980469 22.75 37.980469 23.277344 38.960938 C 23.503906 39.371094 23.6875 39.730469 23.898438 40.085938 C 24.78125 41.644531 25.601562 43.210938 26.289062 44.53125 L 26.292969 44.539062 L 26.300781 44.550781 C 26.378906 44.644531 26.445312 44.757812 26.488281 44.871094 L 26.503906 44.898438 L 26.535156 44.914062 C 26.753906 45.046875 27.035156 45.089844 27.3125 45.023438 C 27.476562 44.984375 27.617188 44.902344 27.78125 44.820312 L 27.789062 44.816406 C 27.921875 44.738281 28.035156 44.671875 28.171875 44.628906 L 28.1875 44.617188 L 28.199219 44.597656 C 28.355469 44.425781 28.507812 44.246094 28.660156 44.039062 C 28.835938 43.761719 28.996094 43.515625 29.167969 43.265625 C 29.488281 42.714844 29.78125 42.109375 30.066406 41.535156 L 30.085938 41.488281 C 30.226562 41.207031 30.378906 40.886719 30.519531 40.589844 C 30.734375 40.171875 30.9375 39.738281 31.140625 39.328125 L 31.1875 39.242188 C 31.691406 38.199219 32.207031 37.117188 32.832031 36.144531 L 32.839844 36.113281 C 32.933594 35.835938 33.042969 35.539062 33.140625 35.25 C 32.398438 34.113281 31.6875 32.996094 30.992188 31.867188 C 30.984375 31.847656 30.96875 31.824219 30.96875 31.800781 L 30.960938 31.769531 L 30.9375 31.746094 C 30.34375 31.167969 30.0625 30.511719 30.089844 29.792969 C 30.140625 28.714844 30.90625 27.597656 31.851562 26.613281 C 31.734375 26.414062 31.625 26.222656 31.511719 26.027344 C 31.277344 25.628906 31.019531 25.226562 30.75 24.800781 C 30.257812 24 29.695312 23.132812 29.316406 22.242188 Z M 22.925781 36.089844 C 22.394531 35.941406 22.289062 35.324219 22.304688 34.847656 C 22.332031 34.070312 22.945312 32.652344 23.960938 32.96875 C 24.472656 33.128906 24.660156 33.746094 24.625 34.230469 C 24.609375 34.464844 24.554688 34.707031 24.46875 34.945312 C 24.421875 35.089844 24.371094 35.238281 24.300781 35.359375 C 24.035156 35.804688 23.484375 36.246094 22.925781 36.089844 Z M 28.691406 40.640625 C 28.898438 41.21875 28.910156 41.941406 28.511719 42.40625 C 28.351562 42.589844 28.15625 42.695312 27.957031 42.71875 C 27.742188 42.832031 27.503906 42.863281 27.257812 42.738281 C 26.863281 42.546875 26.71875 42.117188 26.691406 41.710938 C 26.660156 41.296875 26.761719 40.804688 26.984375 40.40625 C 27.085938 40.160156 27.246094 39.949219 27.453125 39.839844 C 27.484375 39.820312 27.515625 39.8125 27.554688 39.816406 C 27.5625 39.8125 27.570312 39.804688 27.578125 39.800781 C 27.597656 39.789062 27.605469 39.785156 27.628906 39.785156 C 27.628906 39.785156 27.636719 39.777344 27.636719 39.777344 C 27.917969 39.675781 28.230469 39.714844 28.445312 39.960938 C 28.613281 40.148438 28.671875 40.390625 28.691406 40.640625 Z M 29.464844 33.519531 C 29.332031 33.972656 29.039062 34.433594 28.613281 34.667969 C 28.121094 34.945312 27.609375 34.691406 27.449219 34.175781 C 27.347656 33.863281 27.328125 33.488281 27.386719 33.125 C 27.359375 32.558594 27.539062 31.960938 27.9375 31.703125 C 28.402344 31.410156 28.992188 31.605469 29.285156 32.042969 C 29.554688 32.46875 29.597656 33.042969 29.464844 33.519531 Z M 30.460938 33.683594 C 30.324219 33.707031 30.148438 33.527344 29.796875 33.347656 C 30.21875 33.242188 30.433594 33.175781 30.65625 33.152344 C 30.746094 33.144531 30.839844 33.265625 30.933594 33.328125 C 30.78125 33.453125 30.640625 33.652344 30.460938 33.683594 Z M 29.535156 24.246094 C 29.734375 24.949219 29.429688 25.851562 28.921875 26.367188 C 28.632812 26.652344 28.214844 26.875 27.820312 26.683594 C 27.484375 26.527344 27.335938 26.113281 27.320312 25.769531 C 27.320312 25.5 27.359375 25.230469 27.464844 24.972656 C 27.535156 24.546875 27.695312 24.121094 27.898438 23.828125 C 28.429688 23.074219 29.308594 23.453125 29.535156 24.246094 Z M 61.601562 33.789062 C 61.390625 33.746094 61.183594 33.648438 61.003906 33.5625 C 60.789062 33.453125 60.578125 33.332031 60.324219 33.164062 L 60.3125 33.160156 L 60.296875 33.15625 C 60.113281 33.097656 59.957031 33.050781 59.792969 32.992188 L 59.78125 32.988281 L 59.765625 32.984375 C 59.707031 32.984375 59.65625 32.980469 59.59375 32.96875 C 59.878906 33.179688 60.140625 33.363281 60.394531 33.542969 C 60.335938 33.578125 60.261719 33.65625 60.222656 33.644531 C 59.796875 33.480469 59.378906 33.304688 58.953125 33.132812 C 59.039062 33.058594 59.128906 32.996094 59.214844 32.921875 C 59.074219 32.898438 58.9375 32.871094 58.792969 32.839844 L 58.765625 32.832031 L 58.738281 32.847656 C 58.699219 32.859375 58.660156 32.871094 58.621094 32.867188 C 58.433594 32.847656 58.246094 32.785156 58.039062 32.671875 L 58.019531 32.660156 L 57.996094 32.660156 C 57.683594 32.621094 57.414062 32.683594 57.125 32.851562 C 56.917969 32.972656 56.707031 33.15625 56.539062 33.3125 C 56.53125 33.316406 56.523438 33.320312 56.503906 33.332031 C 56.496094 33.335938 56.488281 33.339844 56.476562 33.347656 L 56.4375 33.359375 L 56.421875 33.390625 C 56.003906 34.136719 55.222656 34.769531 54.601562 35.285156 C 53.207031 36.425781 51.9375 37.445312 50.628906 38.40625 C 50.398438 38.574219 50.191406 38.742188 50.007812 38.910156 C 49.054688 39.746094 47.484375 40.988281 46.8125 41.519531 L 46.621094 41.667969 L 46.609375 41.671875 C 45.851562 42.558594 44.964844 43.464844 43.738281 44.613281 C 43.621094 44.738281 43.519531 44.878906 43.484375 45.003906 C 43.449219 45.164062 43.511719 45.292969 43.679688 45.394531 L 43.691406 45.398438 L 43.707031 45.402344 C 44.441406 45.558594 45.175781 45.632812 45.804688 45.6875 C 47.589844 45.839844 49.085938 45.132812 50.308594 44.421875 C 50.414062 44.359375 50.527344 44.292969 50.628906 44.234375 C 52 43.410156 53.449219 42.460938 55.050781 41.339844 C 55.667969 40.910156 60.105469 37.164062 61.039062 35.753906 C 61.089844 35.679688 61.136719 35.617188 61.171875 35.558594 L 61.183594 35.554688 L 61.261719 35.367188 C 61.460938 34.886719 61.664062 34.394531 61.679688 33.917969 L 61.679688 33.835938 Z M 45.28125 44.730469 C 45.054688 44.804688 44.476562 44.976562 44.285156 44.75 C 44.136719 44.578125 44.421875 44.304688 44.535156 44.195312 C 44.832031 43.902344 45.183594 43.664062 45.527344 43.429688 C 45.726562 43.289062 45.929688 43.15625 46.148438 43.03125 C 46.351562 42.914062 48.003906 41.832031 48.726562 41.808594 C 48.957031 41.804688 48.804688 42.101562 48.738281 42.1875 C 48.605469 42.347656 48.453125 42.484375 48.304688 42.628906 C 47.953125 42.972656 47.574219 43.289062 47.191406 43.59375 C 46.613281 44.046875 45.992188 44.503906 45.28125 44.730469 Z M 47.421875 44.59375 C 47.238281 44.65625 46.757812 44.792969 46.597656 44.605469 C 46.480469 44.464844 46.710938 44.234375 46.808594 44.144531 C 47.058594 43.90625 47.347656 43.699219 47.628906 43.5 C 47.800781 43.390625 47.96875 43.28125 48.144531 43.179688 C 48.308594 43.082031 49.683594 42.1875 50.289062 42.160156 C 50.484375 42.152344 50.351562 42.40625 50.296875 42.472656 C 50.1875 42.609375 50.054688 42.71875 49.933594 42.835938 C 49.644531 43.121094 49.332031 43.386719 49.007812 43.636719 C 48.535156 44.015625 48.011719 44.402344 47.421875 44.59375 Z M 52.109375 42.597656 C 51.996094 42.722656 51.878906 42.839844 51.757812 42.957031 C 51.46875 43.242188 51.164062 43.5 50.839844 43.75 C 50.355469 44.125 49.855469 44.507812 49.261719 44.691406 C 49.074219 44.753906 48.59375 44.894531 48.441406 44.714844 C 48.324219 44.570312 48.554688 44.34375 48.644531 44.257812 C 48.890625 44.019531 49.179688 43.8125 49.460938 43.628906 C 49.628906 43.519531 49.796875 43.40625 49.972656 43.304688 C 50.140625 43.207031 51.503906 42.320312 52.097656 42.289062 C 52.289062 42.28125 52.164062 42.53125 52.109375 42.597656 Z M 58.304688 33.488281 C 58.34375 33.476562 58.476562 33.644531 58.46875 33.648438 C 58.363281 33.792969 58.25 33.917969 58.109375 34.078125 C 57.910156 33.9375 57.761719 33.839844 57.621094 33.742188 C 57.851562 33.65625 58.074219 33.550781 58.304688 33.488281 Z M 53.042969 38.53125 C 52.816406 38.605469 52.238281 38.777344 52.046875 38.550781 C 51.898438 38.378906 52.183594 38.105469 52.296875 37.996094 C 52.59375 37.703125 52.945312 37.464844 53.289062 37.230469 C 53.488281 37.089844 53.691406 36.960938 53.910156 36.832031 C 54.113281 36.714844 55.765625 35.636719 56.488281 35.609375 C 56.71875 35.605469 56.566406 35.90625 56.5 35.992188 C 56.367188 36.148438 56.214844 36.285156 56.0625 36.429688 C 55.714844 36.773438 55.335938 37.089844 54.953125 37.394531 C 54.375 37.847656 53.757812 38.3125 53.042969 38.53125 Z M 55.183594 38.394531 C 55 38.457031 54.519531 38.597656 54.359375 38.40625 C 54.242188 38.265625 54.472656 38.039062 54.570312 37.945312 C 54.820312 37.707031 55.109375 37.503906 55.390625 37.304688 C 55.5625 37.191406 55.730469 37.082031 55.90625 36.980469 C 56.070312 36.882812 57.445312 35.988281 58.050781 35.964844 C 58.246094 35.957031 58.113281 36.207031 58.058594 36.277344 C 57.949219 36.410156 57.816406 36.523438 57.695312 36.640625 C 57.40625 36.925781 57.089844 37.191406 56.769531 37.4375 C 56.304688 37.824219 55.78125 38.210938 55.183594 38.394531 Z M 59.878906 36.40625 C 59.761719 36.535156 59.644531 36.648438 59.523438 36.765625 C 59.234375 37.050781 58.929688 37.3125 58.605469 37.558594 C 58.121094 37.933594 57.621094 38.320312 57.027344 38.503906 C 56.839844 38.566406 56.359375 38.703125 56.207031 38.523438 C 56.089844 38.382812 56.320312 38.15625 56.410156 38.066406 C 56.65625 37.828125 56.949219 37.625 57.226562 37.4375 C 57.394531 37.328125 57.566406 37.21875 57.738281 37.117188 C 57.90625 37.019531 59.269531 36.128906 59.863281 36.101562 C 60.066406 36.089844 59.933594 36.339844 59.878906 36.40625 Z M 23.351562 35.21875 C 23.371094 35.3125 23.347656 35.410156 23.351562 35.515625 C 23.273438 35.5 23.203125 35.484375 23.074219 35.464844 C 23.125 35.328125 23.15625 35.242188 23.1875 35.152344 C 23.242188 35.167969 23.347656 35.1875 23.351562 35.21875 Z M 23.46875 34.613281 C 23.390625 34.660156 23.277344 34.644531 23.074219 34.65625 C 23.164062 34.476562 23.1875 34.355469 23.261719 34.300781 C 23.316406 34.269531 23.457031 34.316406 23.507812 34.382812 C 23.546875 34.429688 23.511719 34.589844 23.46875 34.613281 Z M 23.46875 34.613281 " fill-opacity="1" fill-rule="nonzero"/></g></g></g><g fill="#000000" fill-opacity="1"><g transform="translate(72.687366, 38.702307)"><g><path d="M 14.066406 -9.4375 C 14.160156 -9.683594 14.21875 -9.960938 14.28125 -10.207031 C 14.371094 -10.480469 14.371094 -10.757812 14.402344 -11.003906 C 14.464844 -11.277344 14.527344 -11.554688 14.527344 -11.796875 C 14.527344 -12.074219 14.433594 -12.351562 14.402344 -12.59375 C 14.34375 -12.871094 14.28125 -13.117188 14.1875 -13.363281 C 14.097656 -13.605469 14.003906 -13.851562 13.882812 -14.097656 C 13.730469 -14.3125 13.546875 -14.527344 13.363281 -14.710938 C 13.179688 -14.894531 12.964844 -15.046875 12.75 -15.199219 C 12.535156 -15.355469 12.320312 -15.539062 12.074219 -15.660156 C 11.828125 -15.753906 11.554688 -15.78125 11.308594 -15.875 C 11.03125 -15.9375 10.789062 -16.027344 10.511719 -16.058594 C 10.265625 -16.089844 9.992188 -16.179688 9.714844 -16.179688 C 9.46875 -16.179688 9.164062 -16.152344 8.824219 -16.152344 C 8.550781 -16.152344 8.242188 -16.179688 7.9375 -16.179688 C 7.660156 -16.179688 7.355469 -16.179688 7.046875 -16.179688 C 6.742188 -16.179688 6.464844 -16.152344 6.160156 -16.152344 C 5.851562 -16.152344 5.546875 -16.152344 5.269531 -16.152344 C 4.933594 -16.152344 4.628906 -16.210938 4.382812 -16.210938 C 4.105469 -16.179688 3.832031 -16.121094 3.617188 -16.089844 C 3.277344 -16.089844 3.035156 -16.121094 2.851562 -16.089844 C 2.605469 -16.027344 2.511719 -15.875 2.453125 -15.507812 C 2.421875 -15.324219 2.296875 -15.078125 2.296875 -14.742188 C 2.296875 -14.464844 2.328125 -14.1875 2.328125 -13.914062 C 2.328125 -13.636719 2.296875 -13.363281 2.269531 -13.085938 C 2.269531 -12.808594 2.296875 -12.535156 2.296875 -12.257812 C 2.296875 -11.984375 2.269531 -11.707031 2.269531 -11.429688 C 2.269531 -11.15625 2.269531 -10.878906 2.269531 -10.605469 C 2.269531 -10.328125 2.238281 -10.050781 2.238281 -9.777344 C 2.238281 -9.5 2.296875 -9.222656 2.296875 -8.949219 C 2.296875 -8.671875 2.238281 -8.367188 2.238281 -8.121094 C 2.238281 -7.816406 2.269531 -7.539062 2.296875 -7.292969 C 2.296875 -7.019531 2.238281 -6.710938 2.238281 -6.40625 C 2.238281 -6.128906 2.238281 -5.851562 2.238281 -5.546875 C 2.238281 -5.242188 2.269531 -4.964844 2.269531 -4.660156 C 2.269531 -4.351562 2.238281 -4.074219 2.238281 -3.769531 C 2.238281 -3.492188 2.238281 -3.1875 2.238281 -2.910156 C 2.238281 -2.605469 2.175781 -2.328125 2.175781 -2.023438 C 2.144531 -1.714844 2.238281 -1.441406 2.238281 -1.164062 C 2.269531 -0.828125 2.328125 -0.613281 2.421875 -0.429688 C 2.574219 -0.183594 2.757812 0 3.035156 0.0625 C 3.25 0.121094 3.523438 0.0625 3.800781 0.0625 C 4.046875 0.03125 4.320312 0.0625 4.597656 0.03125 C 4.84375 0.03125 5.117188 0.0625 5.394531 0.0625 C 5.640625 0.0625 5.882812 0.0625 6.160156 0.0625 C 6.40625 0.0625 6.679688 0.03125 6.925781 0.03125 C 7.203125 0.03125 7.445312 0.09375 7.722656 0.09375 C 7.96875 0.09375 8.242188 0.09375 8.488281 0.0625 C 8.734375 0.0625 9.011719 0 9.253906 0 C 9.53125 0 9.777344 -0.03125 10.019531 -0.03125 C 10.296875 -0.03125 10.542969 0 10.789062 -0.03125 C 11.09375 -0.03125 11.371094 -0.09375 11.613281 -0.152344 C 11.890625 -0.246094 12.167969 -0.335938 12.410156 -0.429688 C 12.6875 -0.550781 12.902344 -0.703125 13.148438 -0.890625 C 13.363281 -1.042969 13.605469 -1.195312 13.789062 -1.378906 C 13.976562 -1.59375 14.1875 -1.777344 14.34375 -2.023438 C 14.496094 -2.269531 14.585938 -2.542969 14.710938 -2.789062 C 14.800781 -3.066406 14.863281 -3.339844 14.925781 -3.617188 C 14.984375 -3.890625 15.015625 -4.167969 15.046875 -4.445312 C 15.046875 -4.75 15.046875 -5.027344 15.015625 -5.332031 C 15.015625 -5.640625 15.046875 -5.945312 14.984375 -6.222656 C 14.925781 -6.527344 14.742188 -6.773438 14.617188 -7.046875 C 14.527344 -7.324219 14.433594 -7.601562 14.25 -7.84375 C 14.097656 -8.089844 13.882812 -8.304688 13.667969 -8.519531 C 13.820312 -8.886719 13.976562 -9.164062 14.066406 -9.4375 Z M 5.609375 -3.554688 C 5.609375 -3.800781 5.609375 -4.074219 5.609375 -4.320312 C 5.609375 -4.566406 5.640625 -4.84375 5.640625 -5.085938 C 5.640625 -5.332031 5.640625 -5.609375 5.640625 -5.851562 C 5.640625 -6.097656 5.609375 -6.40625 5.609375 -6.621094 C 5.851562 -6.648438 6.160156 -6.621094 6.4375 -6.621094 C 6.710938 -6.621094 6.988281 -6.648438 7.261719 -6.648438 C 7.539062 -6.648438 7.816406 -6.710938 8.058594 -6.679688 C 8.335938 -6.679688 8.613281 -6.679688 8.886719 -6.648438 C 9.164062 -6.621094 9.4375 -6.558594 9.683594 -6.527344 C 9.992188 -6.496094 10.265625 -6.464844 10.480469 -6.40625 C 10.816406 -6.34375 11.125 -6.222656 11.339844 -6.039062 C 11.613281 -5.851562 11.828125 -5.609375 11.953125 -5.332031 C 12.074219 -5.054688 12.074219 -4.71875 12.042969 -4.414062 C 12.011719 -4.074219 11.890625 -3.800781 11.738281 -3.585938 C 11.585938 -3.339844 11.398438 -3.125 11.09375 -3.003906 C 10.847656 -2.878906 10.542969 -2.789062 10.207031 -2.789062 C 9.992188 -2.757812 9.746094 -2.757812 9.4375 -2.757812 C 9.222656 -2.726562 8.949219 -2.726562 8.671875 -2.726562 C 8.425781 -2.726562 8.183594 -2.789062 7.90625 -2.820312 C 7.660156 -2.820312 7.417969 -2.726562 7.140625 -2.726562 C 6.894531 -2.726562 6.621094 -2.789062 6.375 -2.789062 C 6.128906 -2.789062 5.851562 -2.789062 5.640625 -2.789062 C 5.640625 -3.035156 5.609375 -3.308594 5.609375 -3.554688 Z M 5.515625 -10.605469 C 5.515625 -10.910156 5.515625 -11.1875 5.515625 -11.460938 C 5.515625 -11.738281 5.453125 -12.042969 5.453125 -12.289062 C 5.453125 -12.59375 5.515625 -12.871094 5.515625 -13.148438 C 5.730469 -13.238281 5.976562 -13.332031 6.222656 -13.390625 C 6.464844 -13.421875 6.710938 -13.515625 6.988281 -13.546875 C 7.234375 -13.578125 7.507812 -13.578125 7.753906 -13.578125 C 8.027344 -13.578125 8.273438 -13.484375 8.519531 -13.484375 C 8.796875 -13.453125 9.039062 -13.421875 9.285156 -13.363281 C 9.5625 -13.332031 9.808594 -13.269531 10.019531 -13.207031 C 10.328125 -13.117188 10.632812 -12.992188 10.816406 -12.808594 C 11.0625 -12.59375 11.214844 -12.320312 11.308594 -12.042969 C 11.398438 -11.769531 11.398438 -11.492188 11.339844 -11.1875 C 11.277344 -10.878906 11.214844 -10.605469 11.0625 -10.390625 C 10.910156 -10.175781 10.695312 -9.992188 10.449219 -9.867188 C 10.207031 -9.777344 9.929688 -9.714844 9.621094 -9.714844 C 9.378906 -9.714844 9.101562 -9.683594 8.796875 -9.683594 C 8.550781 -9.683594 8.273438 -9.777344 7.96875 -9.777344 C 7.691406 -9.777344 7.417969 -9.714844 7.140625 -9.714844 C 6.863281 -9.714844 6.589844 -9.777344 6.3125 -9.777344 C 6.039062 -9.777344 5.761719 -9.746094 5.515625 -9.746094 C 5.515625 -10.050781 5.515625 -10.328125 5.515625 -10.605469 Z M 5.515625 -10.605469 "/></g></g></g><g fill="#000000" fill-opacity="1"><g transform="translate(89.479023, 38.702307)"><g><path d="M 13.085938 -5.269531 C 12.992188 -4.996094 12.964844 -4.75 12.839844 -4.535156 C 12.71875 -4.261719 12.566406 -4.046875 12.382812 -3.863281 C 12.195312 -3.648438 11.984375 -3.523438 11.738281 -3.371094 C 11.523438 -3.21875 11.277344 -3.125 11.03125 -3.003906 C 10.789062 -2.941406 10.542969 -2.851562 10.265625 -2.789062 C 9.960938 -2.726562 9.683594 -2.757812 9.378906 -2.757812 C 9.070312 -2.757812 8.765625 -2.726562 8.488281 -2.757812 C 8.183594 -2.820312 7.90625 -2.941406 7.660156 -3.035156 C 7.355469 -3.15625 7.109375 -3.308594 6.894531 -3.464844 C 6.621094 -3.648438 6.40625 -3.832031 6.25 -4.046875 C 6.097656 -4.320312 6.007812 -4.566406 5.851562 -4.8125 C 5.730469 -5.085938 5.640625 -5.332031 5.515625 -5.609375 C 5.425781 -5.882812 5.300781 -6.128906 5.242188 -6.40625 C 5.148438 -6.679688 5.085938 -6.957031 5.027344 -7.234375 C 4.996094 -7.539062 5.054688 -7.816406 5.027344 -8.089844 C 5.027344 -8.398438 4.964844 -8.671875 4.996094 -8.949219 C 4.996094 -9.222656 5.085938 -9.5 5.148438 -9.808594 C 5.210938 -10.082031 5.242188 -10.359375 5.332031 -10.632812 C 5.425781 -10.910156 5.640625 -11.125 5.761719 -11.398438 C 5.882812 -11.675781 5.976562 -11.953125 6.160156 -12.167969 C 6.34375 -12.410156 6.589844 -12.59375 6.835938 -12.78125 C 7.078125 -12.964844 7.324219 -13.117188 7.601562 -13.238281 C 7.84375 -13.363281 8.152344 -13.421875 8.425781 -13.484375 C 8.734375 -13.546875 9.011719 -13.605469 9.316406 -13.578125 C 9.621094 -13.578125 9.898438 -13.515625 10.207031 -13.453125 C 10.480469 -13.390625 10.816406 -13.390625 11.09375 -13.269531 C 11.371094 -13.179688 11.613281 -12.964844 11.859375 -12.808594 C 12.074219 -12.6875 12.410156 -12.535156 12.71875 -12.351562 C 12.992188 -12.167969 13.269531 -11.921875 13.515625 -11.796875 C 13.789062 -11.675781 14.035156 -11.613281 14.25 -11.644531 C 14.496094 -11.707031 14.710938 -11.828125 14.925781 -12.011719 C 15.109375 -12.167969 15.292969 -12.351562 15.476562 -12.59375 C 15.753906 -12.902344 15.90625 -13.207031 15.90625 -13.484375 C 15.964844 -13.789062 15.875 -14.128906 15.566406 -14.402344 C 15.382812 -14.585938 15.109375 -14.710938 14.894531 -14.863281 C 14.679688 -15.015625 14.464844 -15.167969 14.21875 -15.324219 C 13.976562 -15.445312 13.761719 -15.660156 13.515625 -15.753906 C 13.269531 -15.875 12.992188 -15.90625 12.75 -15.996094 C 12.472656 -16.089844 12.226562 -16.179688 11.953125 -16.242188 C 11.675781 -16.304688 11.429688 -16.363281 11.15625 -16.394531 C 10.878906 -16.457031 10.605469 -16.457031 10.328125 -16.457031 C 10.050781 -16.488281 9.777344 -16.425781 9.5 -16.425781 C 9.222656 -16.425781 8.949219 -16.488281 8.671875 -16.457031 C 8.398438 -16.425781 8.121094 -16.363281 7.875 -16.335938 C 7.570312 -16.273438 7.324219 -16.179688 7.046875 -16.121094 C 6.742188 -16.027344 6.496094 -15.9375 6.222656 -15.84375 C 5.945312 -15.753906 5.667969 -15.691406 5.425781 -15.566406 C 5.148438 -15.445312 4.902344 -15.292969 4.6875 -15.140625 C 4.445312 -14.984375 4.199219 -14.800781 3.984375 -14.617188 C 3.769531 -14.433594 3.617188 -14.1875 3.433594 -13.976562 C 3.21875 -13.761719 3.035156 -13.578125 2.878906 -13.332031 C 2.726562 -13.085938 2.542969 -12.839844 2.421875 -12.59375 C 2.328125 -12.289062 2.269531 -12.011719 2.207031 -11.707031 C 2.113281 -11.429688 2.054688 -11.125 1.992188 -10.847656 C 1.929688 -10.574219 1.871094 -10.265625 1.808594 -9.992188 C 1.777344 -9.683594 1.746094 -9.378906 1.714844 -9.101562 C 1.683594 -8.796875 1.59375 -8.519531 1.59375 -8.214844 C 1.5625 -7.90625 1.65625 -7.632812 1.65625 -7.324219 C 1.683594 -7.019531 1.65625 -6.742188 1.683594 -6.4375 C 1.714844 -6.128906 1.777344 -5.851562 1.839844 -5.546875 C 1.929688 -5.269531 1.960938 -4.964844 2.054688 -4.6875 C 2.144531 -4.414062 2.269531 -4.136719 2.390625 -3.863281 C 2.480469 -3.585938 2.605469 -3.339844 2.757812 -3.09375 C 2.878906 -2.851562 3.003906 -2.605469 3.1875 -2.390625 C 3.339844 -2.175781 3.554688 -1.960938 3.738281 -1.777344 C 3.953125 -1.5625 4.136719 -1.378906 4.351562 -1.195312 C 4.566406 -1.011719 4.8125 -0.859375 5.054688 -0.703125 C 5.269531 -0.550781 5.546875 -0.460938 5.792969 -0.335938 C 6.039062 -0.214844 6.28125 -0.0625 6.558594 0.03125 C 6.835938 0.121094 7.109375 0.121094 7.386719 0.183594 C 7.660156 0.246094 7.90625 0.367188 8.214844 0.398438 C 8.488281 0.429688 8.765625 0.429688 9.070312 0.460938 C 9.347656 0.460938 9.621094 0.367188 9.929688 0.335938 C 10.207031 0.304688 10.480469 0.335938 10.789062 0.277344 C 11.0625 0.214844 11.339844 0.152344 11.613281 0.09375 C 11.890625 0 12.136719 -0.152344 12.410156 -0.246094 C 12.65625 -0.367188 12.933594 -0.460938 13.207031 -0.582031 C 13.453125 -0.703125 13.699219 -0.828125 13.945312 -1.011719 C 14.1875 -1.164062 14.371094 -1.410156 14.585938 -1.59375 C 14.800781 -1.777344 15.046875 -1.898438 15.261719 -2.113281 C 15.445312 -2.328125 15.566406 -2.605469 15.722656 -2.851562 C 15.875 -3.066406 16.058594 -3.308594 16.179688 -3.554688 C 16.304688 -3.832031 16.394531 -4.074219 16.519531 -4.351562 C 16.609375 -4.628906 16.703125 -4.871094 16.761719 -5.179688 C 16.855469 -5.453125 16.855469 -5.730469 16.886719 -6.007812 C 16.917969 -6.28125 16.976562 -6.589844 16.976562 -6.863281 C 17.007812 -7.140625 17.007812 -7.445312 16.976562 -7.753906 C 16.976562 -8.027344 16.855469 -8.304688 16.703125 -8.550781 C 16.550781 -8.765625 16.363281 -8.980469 16.027344 -9.070312 C 15.8125 -9.164062 15.507812 -9.164062 15.167969 -9.164062 C 14.894531 -9.164062 14.617188 -9.164062 14.34375 -9.164062 C 14.066406 -9.195312 13.820312 -9.195312 13.546875 -9.195312 C 13.269531 -9.222656 12.992188 -9.222656 12.75 -9.222656 C 12.472656 -9.222656 12.195312 -9.285156 11.921875 -9.285156 C 11.675781 -9.285156 11.398438 -9.316406 11.125 -9.316406 C 10.847656 -9.316406 10.574219 -9.285156 10.296875 -9.285156 C 10.050781 -9.285156 9.777344 -9.222656 9.5 -9.222656 C 9.222656 -9.195312 8.980469 -9.253906 8.671875 -9.222656 C 8.488281 -9.222656 8.398438 -8.917969 8.304688 -8.582031 C 8.214844 -8.304688 8.121094 -8 8.089844 -7.816406 C 8.089844 -7.601562 8.089844 -7.292969 8.183594 -7.046875 C 8.242188 -6.773438 8.425781 -6.589844 8.613281 -6.4375 C 8.824219 -6.3125 9.039062 -6.222656 9.316406 -6.191406 C 9.5625 -6.160156 9.835938 -6.191406 10.082031 -6.191406 C 10.390625 -6.191406 10.632812 -6.097656 10.878906 -6.097656 C 11.15625 -6.066406 11.398438 -6.039062 11.675781 -6.039062 C 11.921875 -6.039062 12.167969 -6.039062 12.472656 -6.039062 C 12.6875 -6.007812 12.964844 -6.066406 13.269531 -6.066406 C 13.238281 -5.792969 13.148438 -5.515625 13.085938 -5.269531 Z M 13.085938 -5.269531 "/></g></g></g><g fill="#000000" fill-opacity="1"><g transform="translate(108.017249, 38.702307)"><g/></g></g><g fill="#000000" fill-opacity="1"><g transform="translate(116.627559, 38.702307)"><g><path d="M 5.363281 -2.820312 C 5.394531 -3.09375 5.425781 -3.371094 5.453125 -3.675781 C 5.453125 -3.953125 5.425781 -4.261719 5.453125 -4.535156 C 5.484375 -4.84375 5.578125 -5.148438 5.609375 -5.425781 C 5.609375 -5.730469 5.640625 -6.007812 5.667969 -6.28125 C 5.699219 -6.773438 5.667969 -7.078125 5.699219 -7.109375 C 5.792969 -6.957031 5.945312 -6.742188 6.039062 -6.496094 C 6.128906 -6.222656 6.222656 -5.976562 6.3125 -5.851562 C 6.40625 -5.609375 6.527344 -5.363281 6.621094 -5.117188 C 6.742188 -4.871094 6.804688 -4.597656 6.925781 -4.351562 C 7.019531 -4.105469 7.171875 -3.890625 7.292969 -3.648438 C 7.386719 -3.402344 7.507812 -3.15625 7.632812 -2.941406 C 7.753906 -2.695312 7.785156 -2.421875 7.90625 -2.175781 C 8.027344 -1.929688 8.214844 -1.746094 8.335938 -1.5 C 8.457031 -1.257812 8.550781 -1.011719 8.671875 -0.765625 C 8.824219 -0.519531 9.070312 -0.246094 9.378906 -0.0625 C 9.683594 0.121094 10.050781 0.183594 10.296875 0.183594 C 10.574219 0.183594 10.941406 0.09375 11.246094 -0.121094 C 11.554688 -0.304688 11.828125 -0.582031 12.011719 -0.796875 C 12.136719 -0.980469 12.167969 -1.226562 12.226562 -1.441406 C 12.257812 -1.65625 12.351562 -1.871094 12.441406 -2.082031 C 12.535156 -2.328125 12.59375 -2.636719 12.6875 -2.878906 C 12.78125 -3.15625 12.933594 -3.402344 13.023438 -3.675781 C 13.148438 -3.921875 13.300781 -4.167969 13.390625 -4.445312 C 13.515625 -4.71875 13.578125 -4.996094 13.699219 -5.242188 C 13.789062 -5.515625 13.914062 -5.761719 14.003906 -6.039062 C 14.128906 -6.28125 14.25 -6.527344 14.371094 -6.804688 C 14.464844 -7.078125 14.558594 -7.386719 14.648438 -7.632812 C 14.984375 -7.386719 14.710938 -7.261719 14.742188 -6.773438 C 14.742188 -6.527344 14.742188 -6.222656 14.769531 -5.945312 C 14.769531 -5.640625 14.800781 -5.363281 14.800781 -5.085938 C 14.832031 -4.78125 14.800781 -4.503906 14.800781 -4.261719 C 14.800781 -3.984375 14.863281 -3.675781 14.863281 -3.339844 C 14.863281 -3.066406 14.832031 -2.757812 14.832031 -2.453125 C 14.832031 -2.113281 14.863281 -1.808594 14.863281 -1.53125 C 14.894531 -1.195312 14.894531 -0.890625 14.925781 -0.613281 C 14.957031 -0.277344 15.140625 -0.09375 15.382812 0 C 15.597656 0.121094 15.875 0.152344 16.179688 0.121094 C 16.457031 0.121094 16.734375 0.09375 16.976562 0.0625 C 17.375 0.03125 17.652344 0.03125 17.804688 -0.0625 C 17.988281 -0.183594 18.050781 -0.398438 18.050781 -0.828125 C 18.019531 -1.074219 18.082031 -1.347656 18.050781 -1.625 C 18.050781 -1.898438 17.988281 -2.175781 17.988281 -2.453125 C 17.988281 -2.695312 17.957031 -2.972656 17.957031 -3.25 C 17.957031 -3.523438 17.988281 -3.800781 17.988281 -4.074219 C 17.957031 -4.320312 17.929688 -4.597656 17.898438 -4.871094 C 17.898438 -5.148438 17.929688 -5.425781 17.929688 -5.699219 C 17.929688 -5.976562 17.929688 -6.222656 17.929688 -6.496094 C 17.898438 -6.773438 17.835938 -7.046875 17.835938 -7.324219 C 17.835938 -7.601562 17.867188 -7.875 17.867188 -8.152344 C 17.867188 -8.398438 17.867188 -8.671875 17.835938 -8.949219 C 17.835938 -9.222656 17.773438 -9.5 17.773438 -9.777344 C 17.773438 -10.019531 17.742188 -10.296875 17.742188 -10.574219 C 17.742188 -10.847656 17.773438 -11.125 17.742188 -11.371094 C 17.742188 -11.644531 17.773438 -11.921875 17.742188 -12.195312 C 17.742188 -12.441406 17.683594 -12.71875 17.652344 -12.992188 C 17.652344 -13.269531 17.714844 -13.546875 17.714844 -13.789062 C 17.714844 -14.097656 17.652344 -14.34375 17.652344 -14.617188 C 17.621094 -14.894531 17.621094 -15.167969 17.621094 -15.414062 C 17.621094 -15.753906 17.46875 -15.964844 17.191406 -16.058594 C 17.007812 -16.152344 16.734375 -16.210938 16.394531 -16.210938 C 16.152344 -16.242188 15.875 -16.242188 15.597656 -16.273438 C 15.230469 -16.242188 14.957031 -16.121094 14.742188 -16.027344 C 14.433594 -15.875 14.21875 -15.660156 14.097656 -15.414062 C 13.976562 -15.140625 13.945312 -14.832031 13.851562 -14.558594 C 13.730469 -14.28125 13.578125 -14.035156 13.484375 -13.761719 C 13.390625 -13.484375 13.300781 -13.207031 13.207031 -12.933594 C 13.085938 -12.65625 12.964844 -12.410156 12.839844 -12.136719 C 12.75 -11.859375 12.6875 -11.585938 12.59375 -11.308594 C 12.503906 -11.03125 12.351562 -10.789062 12.257812 -10.511719 C 12.167969 -10.234375 12.074219 -9.960938 11.984375 -9.683594 C 11.859375 -9.410156 11.707031 -9.164062 11.585938 -8.886719 C 11.492188 -8.640625 11.460938 -8.335938 11.371094 -8.058594 C 11.246094 -7.785156 11.09375 -7.539062 11.003906 -7.261719 C 10.878906 -6.957031 10.695312 -6.742188 10.480469 -6.40625 C 10.328125 -6.191406 10.175781 -5.882812 9.960938 -5.546875 C 9.835938 -5.792969 9.746094 -6.066406 9.652344 -6.3125 C 9.53125 -6.589844 9.46875 -6.863281 9.347656 -7.109375 C 9.253906 -7.355469 9.101562 -7.601562 9.011719 -7.875 C 8.886719 -8.121094 8.824219 -8.398438 8.734375 -8.640625 C 8.613281 -8.917969 8.519531 -9.164062 8.398438 -9.410156 C 8.304688 -9.683594 8.121094 -9.898438 8.027344 -10.175781 C 7.90625 -10.417969 7.785156 -10.664062 7.691406 -10.910156 C 7.570312 -11.1875 7.539062 -11.460938 7.417969 -11.707031 C 7.324219 -11.984375 7.140625 -12.195312 7.046875 -12.472656 C 6.925781 -12.71875 6.835938 -12.992188 6.710938 -13.238281 C 6.621094 -13.484375 6.527344 -13.761719 6.4375 -14.035156 C 6.34375 -14.25 6.28125 -14.527344 6.191406 -14.742188 C 6.128906 -14.984375 6.039062 -15.230469 5.882812 -15.445312 C 5.761719 -15.628906 5.578125 -15.84375 5.332031 -15.964844 C 5.148438 -16.089844 4.871094 -16.089844 4.597656 -16.152344 C 4.351562 -16.179688 4.105469 -16.210938 3.832031 -16.179688 C 3.433594 -16.242188 3.15625 -16.179688 2.972656 -16.058594 C 2.726562 -15.9375 2.636719 -15.722656 2.574219 -15.324219 C 2.511719 -15.078125 2.511719 -14.769531 2.511719 -14.402344 C 2.480469 -14.160156 2.480469 -13.851562 2.480469 -13.515625 C 2.480469 -13.238281 2.480469 -12.933594 2.480469 -12.65625 C 2.453125 -12.382812 2.453125 -12.105469 2.453125 -11.828125 C 2.453125 -11.554688 2.359375 -11.277344 2.359375 -11.03125 C 2.359375 -10.726562 2.390625 -10.449219 2.390625 -10.175781 C 2.390625 -9.898438 2.390625 -9.652344 2.359375 -9.378906 C 2.359375 -9.101562 2.269531 -8.824219 2.269531 -8.550781 C 2.238281 -8.273438 2.269531 -8 2.269531 -7.722656 C 2.238281 -7.445312 2.238281 -7.171875 2.238281 -6.894531 C 2.207031 -6.621094 2.238281 -6.34375 2.238281 -6.066406 C 2.238281 -5.792969 2.238281 -5.515625 2.238281 -5.242188 C 2.207031 -4.964844 2.175781 -4.6875 2.175781 -4.414062 C 2.175781 -4.136719 2.113281 -3.863281 2.113281 -3.554688 C 2.113281 -3.308594 2.175781 -3.003906 2.175781 -2.726562 C 2.175781 -2.453125 2.175781 -2.175781 2.175781 -1.898438 C 2.175781 -1.714844 2.113281 -1.347656 2.113281 -1.011719 C 2.082031 -0.613281 2.113281 -0.246094 2.207031 -0.121094 C 2.328125 0.0625 2.574219 0.0625 2.820312 0.0625 C 3.066406 0.0625 3.339844 0.03125 3.523438 0.0625 C 3.675781 0.0625 4.046875 0.0625 4.351562 0.0625 C 4.71875 0.0625 5.085938 0.0625 5.179688 -0.121094 C 5.300781 -0.335938 5.269531 -0.675781 5.300781 -1.011719 C 5.300781 -1.347656 5.332031 -1.683594 5.363281 -1.929688 C 5.363281 -2.175781 5.332031 -2.480469 5.363281 -2.820312 Z M 5.363281 -2.820312 "/></g></g></g><g fill="#000000" fill-opacity="1"><g transform="translate(136.820443, 38.702307)"><g><path d="M 6.40625 -12.839844 C 6.679688 -12.839844 6.957031 -12.839844 7.234375 -12.839844 C 7.539062 -12.839844 7.816406 -12.78125 8.089844 -12.78125 C 8.367188 -12.78125 8.671875 -12.839844 8.949219 -12.839844 C 9.222656 -12.839844 9.5 -12.839844 9.777344 -12.839844 C 10.082031 -12.839844 10.359375 -12.78125 10.632812 -12.78125 C 10.910156 -12.78125 11.214844 -12.808594 11.460938 -12.808594 C 11.769531 -12.808594 12.042969 -12.839844 12.320312 -12.839844 C 12.65625 -12.839844 12.933594 -12.839844 13.148438 -12.964844 C 13.390625 -13.085938 13.515625 -13.300781 13.636719 -13.578125 C 13.730469 -13.820312 13.789062 -14.066406 13.820312 -14.402344 C 13.820312 -14.648438 13.882812 -14.894531 13.882812 -15.140625 C 13.882812 -15.382812 13.851562 -15.628906 13.667969 -15.78125 C 13.546875 -15.90625 13.332031 -15.996094 13.023438 -16.058594 C 12.808594 -16.089844 12.59375 -16.152344 12.289062 -16.152344 C 12.042969 -16.152344 11.738281 -16.089844 11.429688 -16.089844 C 11.15625 -16.089844 10.847656 -16.121094 10.542969 -16.089844 C 10.265625 -16.089844 9.960938 -16.121094 9.683594 -16.121094 C 9.378906 -16.121094 9.070312 -16.058594 8.796875 -16.027344 C 8.488281 -16.027344 8.183594 -16.027344 7.9375 -16.027344 C 7.691406 -16.027344 7.417969 -15.996094 7.140625 -16.027344 C 6.894531 -16.027344 6.621094 -15.996094 6.34375 -15.996094 C 6.097656 -16.027344 5.824219 -16.027344 5.546875 -16.027344 C 5.300781 -16.058594 5.027344 -16.121094 4.75 -16.152344 C 4.503906 -16.152344 4.230469 -16.089844 3.953125 -16.089844 C 3.707031 -16.121094 3.433594 -16.152344 3.15625 -16.152344 C 2.910156 -16.152344 2.667969 -16.089844 2.421875 -16.089844 C 2.390625 -15.8125 2.328125 -15.566406 2.328125 -15.292969 C 2.296875 -15.015625 2.359375 -14.742188 2.359375 -14.464844 C 2.359375 -14.1875 2.296875 -13.914062 2.296875 -13.636719 C 2.296875 -13.363281 2.328125 -13.085938 2.296875 -12.808594 C 2.296875 -12.503906 2.296875 -12.226562 2.296875 -11.953125 C 2.296875 -11.675781 2.296875 -11.398438 2.296875 -11.125 C 2.296875 -10.847656 2.269531 -10.574219 2.238281 -10.296875 C 2.238281 -10.019531 2.328125 -9.746094 2.328125 -9.46875 C 2.328125 -9.195312 2.238281 -8.917969 2.238281 -8.640625 C 2.238281 -8.367188 2.296875 -8.089844 2.269531 -7.816406 C 2.269531 -7.539062 2.238281 -7.292969 2.238281 -7.019531 C 2.238281 -6.742188 2.238281 -6.464844 2.238281 -6.191406 C 2.238281 -5.914062 2.238281 -5.640625 2.238281 -5.363281 C 2.238281 -5.085938 2.238281 -4.8125 2.238281 -4.535156 C 2.238281 -4.261719 2.238281 -3.984375 2.238281 -3.707031 C 2.238281 -3.433594 2.175781 -3.15625 2.175781 -2.878906 C 2.144531 -2.605469 2.238281 -2.328125 2.238281 -2.054688 C 2.238281 -1.777344 2.238281 -1.5 2.238281 -1.226562 C 2.238281 -1.042969 2.359375 -0.734375 2.574219 -0.519531 C 2.820312 -0.277344 3.09375 -0.152344 3.308594 -0.152344 C 3.585938 -0.152344 3.863281 -0.09375 4.167969 -0.09375 C 4.445312 -0.09375 4.71875 -0.03125 5.027344 -0.03125 C 5.300781 -0.03125 5.578125 -0.03125 5.882812 -0.03125 C 6.160156 0 6.4375 -0.03125 6.742188 -0.03125 C 7.019531 -0.03125 7.324219 0.03125 7.601562 0.03125 C 7.875 0.0625 8.183594 0.03125 8.457031 0.03125 C 8.765625 0.0625 9.039062 0 9.316406 0 C 9.621094 0 9.898438 0 10.175781 0 C 10.480469 0 10.757812 0.0625 11.03125 0.0625 C 11.339844 0.0625 11.613281 0.03125 11.890625 0.03125 C 12.195312 0.03125 12.472656 0.03125 12.75 0 C 13.085938 0 13.300781 -0.121094 13.453125 -0.335938 C 13.605469 -0.519531 13.667969 -0.796875 13.636719 -1.101562 C 13.578125 -1.347656 13.515625 -1.65625 13.363281 -1.898438 C 13.207031 -2.082031 13.085938 -2.390625 12.933594 -2.667969 C 12.78125 -2.972656 12.59375 -3.1875 12.320312 -3.21875 C 12.074219 -3.25 11.828125 -3.25 11.523438 -3.25 C 11.277344 -3.25 11.003906 -3.25 10.726562 -3.25 C 10.449219 -3.25 10.175781 -3.308594 9.929688 -3.308594 C 9.652344 -3.308594 9.378906 -3.25 9.132812 -3.21875 C 8.855469 -3.21875 8.582031 -3.277344 8.304688 -3.277344 C 8.027344 -3.277344 7.753906 -3.25 7.539062 -3.25 C 7.261719 -3.277344 7.019531 -3.277344 6.804688 -3.277344 C 6.527344 -3.277344 6.28125 -3.25 6.066406 -3.25 C 5.609375 -3.25 5.578125 -3.003906 5.300781 -3.25 C 4.964844 -3.617188 5.269531 -3.648438 5.242188 -4.230469 C 5.242188 -4.503906 5.210938 -4.84375 5.210938 -5.210938 C 5.242188 -5.609375 5.117188 -5.730469 5.242188 -6.25 C 5.484375 -6.25 5.761719 -6.222656 6.066406 -6.222656 C 6.34375 -6.222656 6.621094 -6.25 6.894531 -6.25 C 7.171875 -6.25 7.476562 -6.222656 7.753906 -6.222656 C 8.027344 -6.222656 8.304688 -6.28125 8.582031 -6.28125 C 8.886719 -6.28125 9.164062 -6.222656 9.410156 -6.222656 C 9.746094 -6.222656 10.019531 -6.222656 10.265625 -6.222656 C 10.605469 -6.222656 10.878906 -6.3125 11.09375 -6.375 C 11.429688 -6.4375 11.707031 -6.527344 11.859375 -6.710938 C 12.011719 -6.925781 12.105469 -7.203125 12.136719 -7.539062 C 12.136719 -7.785156 12.042969 -8.058594 12.011719 -8.367188 C 11.984375 -8.640625 11.984375 -8.917969 11.921875 -9.222656 C 11.707031 -9.253906 11.429688 -9.285156 11.125 -9.285156 C 10.878906 -9.285156 10.632812 -9.222656 10.359375 -9.253906 C 10.082031 -9.253906 9.835938 -9.347656 9.5625 -9.347656 C 9.285156 -9.347656 9.039062 -9.285156 8.765625 -9.316406 C 8.519531 -9.316406 8.242188 -9.347656 8 -9.347656 C 7.722656 -9.378906 7.445312 -9.378906 7.234375 -9.378906 C 6.925781 -9.410156 6.589844 -9.46875 6.3125 -9.46875 C 5.792969 -9.46875 5.699219 -9.101562 5.363281 -9.4375 C 5.027344 -9.746094 5.394531 -9.898438 5.363281 -10.390625 C 5.363281 -10.695312 5.363281 -11.03125 5.363281 -11.339844 C 5.363281 -11.644531 5.363281 -11.796875 5.394531 -12.074219 C 5.453125 -12.257812 5.515625 -12.472656 5.578125 -12.808594 C 5.851562 -12.808594 6.097656 -12.839844 6.40625 -12.839844 Z M 6.40625 -12.839844 "/></g></g></g><g fill="#000000" fill-opacity="1"><g transform="translate(152.141299, 38.702307)"><g><path d="M 6.40625 -12.839844 C 6.679688 -12.839844 6.957031 -12.839844 7.234375 -12.839844 C 7.539062 -12.839844 7.816406 -12.78125 8.089844 -12.78125 C 8.367188 -12.78125 8.671875 -12.839844 8.949219 -12.839844 C 9.222656 -12.839844 9.5 -12.839844 9.777344 -12.839844 C 10.082031 -12.839844 10.359375 -12.78125 10.632812 -12.78125 C 10.910156 -12.78125 11.214844 -12.808594 11.460938 -12.808594 C 11.769531 -12.808594 12.042969 -12.839844 12.320312 -12.839844 C 12.65625 -12.839844 12.933594 -12.839844 13.148438 -12.964844 C 13.390625 -13.085938 13.515625 -13.300781 13.636719 -13.578125 C 13.730469 -13.820312 13.789062 -14.066406 13.820312 -14.402344 C 13.820312 -14.648438 13.882812 -14.894531 13.882812 -15.140625 C 13.882812 -15.382812 13.851562 -15.628906 13.667969 -15.78125 C 13.546875 -15.90625 13.332031 -15.996094 13.023438 -16.058594 C 12.808594 -16.089844 12.59375 -16.152344 12.289062 -16.152344 C 12.042969 -16.152344 11.738281 -16.089844 11.429688 -16.089844 C 11.15625 -16.089844 10.847656 -16.121094 10.542969 -16.089844 C 10.265625 -16.089844 9.960938 -16.121094 9.683594 -16.121094 C 9.378906 -16.121094 9.070312 -16.058594 8.796875 -16.027344 C 8.488281 -16.027344 8.183594 -16.027344 7.9375 -16.027344 C 7.691406 -16.027344 7.417969 -15.996094 7.140625 -16.027344 C 6.894531 -16.027344 6.621094 -15.996094 6.34375 -15.996094 C 6.097656 -16.027344 5.824219 -16.027344 5.546875 -16.027344 C 5.300781 -16.058594 5.027344 -16.121094 4.75 -16.152344 C 4.503906 -16.152344 4.230469 -16.089844 3.953125 -16.089844 C 3.707031 -16.121094 3.433594 -16.152344 3.15625 -16.152344 C 2.910156 -16.152344 2.667969 -16.089844 2.421875 -16.089844 C 2.390625 -15.8125 2.328125 -15.566406 2.328125 -15.292969 C 2.296875 -15.015625 2.359375 -14.742188 2.359375 -14.464844 C 2.359375 -14.1875 2.296875 -13.914062 2.296875 -13.636719 C 2.296875 -13.363281 2.328125 -13.085938 2.296875 -12.808594 C 2.296875 -12.503906 2.296875 -12.226562 2.296875 -11.953125 C 2.296875 -11.675781 2.296875 -11.398438 2.296875 -11.125 C 2.296875 -10.847656 2.269531 -10.574219 2.238281 -10.296875 C 2.238281 -10.019531 2.328125 -9.746094 2.328125 -9.46875 C 2.328125 -9.195312 2.238281 -8.917969 2.238281 -8.640625 C 2.238281 -8.367188 2.296875 -8.089844 2.269531 -7.816406 C 2.269531 -7.539062 2.238281 -7.292969 2.238281 -7.019531 C 2.238281 -6.742188 2.238281 -6.464844 2.238281 -6.191406 C 2.238281 -5.914062 2.238281 -5.640625 2.238281 -5.363281 C 2.238281 -5.085938 2.238281 -4.8125 2.238281 -4.535156 C 2.238281 -4.261719 2.238281 -3.984375 2.238281 -3.707031 C 2.238281 -3.433594 2.175781 -3.15625 2.175781 -2.878906 C 2.144531 -2.605469 2.238281 -2.328125 2.238281 -2.054688 C 2.238281 -1.777344 2.238281 -1.5 2.238281 -1.226562 C 2.238281 -1.042969 2.359375 -0.734375 2.574219 -0.519531 C 2.820312 -0.277344 3.09375 -0.152344 3.308594 -0.152344 C 3.585938 -0.152344 3.863281 -0.09375 4.167969 -0.09375 C 4.445312 -0.09375 4.71875 -0.03125 5.027344 -0.03125 C 5.300781 -0.03125 5.578125 -0.03125 5.882812 -0.03125 C 6.160156 0 6.4375 -0.03125 6.742188 -0.03125 C 7.019531 -0.03125 7.324219 0.03125 7.601562 0.03125 C 7.875 0.0625 8.183594 0.03125 8.457031 0.03125 C 8.765625 0.0625 9.039062 0 9.316406 0 C 9.621094 0 9.898438 0 10.175781 0 C 10.480469 0 10.757812 0.0625 11.03125 0.0625 C 11.339844 0.0625 11.613281 0.03125 11.890625 0.03125 C 12.195312 0.03125 12.472656 0.03125 12.75 0 C 13.085938 0 13.300781 -0.121094 13.453125 -0.335938 C 13.605469 -0.519531 13.667969 -0.796875 13.636719 -1.101562 C 13.578125 -1.347656 13.515625 -1.65625 13.363281 -1.898438 C 13.207031 -2.082031 13.085938 -2.390625 12.933594 -2.667969 C 12.78125 -2.972656 12.59375 -3.1875 12.320312 -3.21875 C 12.074219 -3.25 11.828125 -3.25 11.523438 -3.25 C 11.277344 -3.25 11.003906 -3.25 10.726562 -3.25 C 10.449219 -3.25 10.175781 -3.308594 9.929688 -3.308594 C 9.652344 -3.308594 9.378906 -3.25 9.132812 -3.21875 C 8.855469 -3.21875 8.582031 -3.277344 8.304688 -3.277344 C 8.027344 -3.277344 7.753906 -3.25 7.539062 -3.25 C 7.261719 -3.277344 7.019531 -3.277344 6.804688 -3.277344 C 6.527344 -3.277344 6.28125 -3.25 6.066406 -3.25 C 5.609375 -3.25 5.578125 -3.003906 5.300781 -3.25 C 4.964844 -3.617188 5.269531 -3.648438 5.242188 -4.230469 C 5.242188 -4.503906 5.210938 -4.84375 5.210938 -5.210938 C 5.242188 -5.609375 5.117188 -5.730469 5.242188 -6.25 C 5.484375 -6.25 5.761719 -6.222656 6.066406 -6.222656 C 6.34375 -6.222656 6.621094 -6.25 6.894531 -6.25 C 7.171875 -6.25 7.476562 -6.222656 7.753906 -6.222656 C 8.027344 -6.222656 8.304688 -6.28125 8.582031 -6.28125 C 8.886719 -6.28125 9.164062 -6.222656 9.410156 -6.222656 C 9.746094 -6.222656 10.019531 -6.222656 10.265625 -6.222656 C 10.605469 -6.222656 10.878906 -6.3125 11.09375 -6.375 C 11.429688 -6.4375 11.707031 -6.527344 11.859375 -6.710938 C 12.011719 -6.925781 12.105469 -7.203125 12.136719 -7.539062 C 12.136719 -7.785156 12.042969 -8.058594 12.011719 -8.367188 C 11.984375 -8.640625 11.984375 -8.917969 11.921875 -9.222656 C 11.707031 -9.253906 11.429688 -9.285156 11.125 -9.285156 C 10.878906 -9.285156 10.632812 -9.222656 10.359375 -9.253906 C 10.082031 -9.253906 9.835938 -9.347656 9.5625 -9.347656 C 9.285156 -9.347656 9.039062 -9.285156 8.765625 -9.316406 C 8.519531 -9.316406 8.242188 -9.347656 8 -9.347656 C 7.722656 -9.378906 7.445312 -9.378906 7.234375 -9.378906 C 6.925781 -9.410156 6.589844 -9.46875 6.3125 -9.46875 C 5.792969 -9.46875 5.699219 -9.101562 5.363281 -9.4375 C 5.027344 -9.746094 5.394531 -9.898438 5.363281 -10.390625 C 5.363281 -10.695312 5.363281 -11.03125 5.363281 -11.339844 C 5.363281 -11.644531 5.363281 -11.796875 5.394531 -12.074219 C 5.453125 -12.257812 5.515625 -12.472656 5.578125 -12.808594 C 5.851562 -12.808594 6.097656 -12.839844 6.40625 -12.839844 Z M 6.40625 -12.839844 "/></g></g></g><g fill="#000000" fill-opacity="1"><g transform="translate(167.462154, 38.702307)"><g><path d="M 10.019531 -12.75 C 10.296875 -12.75 10.542969 -12.71875 10.789062 -12.71875 C 11.0625 -12.71875 11.308594 -12.75 11.554688 -12.75 C 11.859375 -12.78125 12.105469 -12.78125 12.289062 -12.78125 C 12.625 -12.839844 12.808594 -12.933594 12.964844 -13.054688 C 13.117188 -13.207031 13.207031 -13.390625 13.238281 -13.730469 C 13.269531 -13.945312 13.207031 -14.1875 13.207031 -14.464844 C 13.207031 -14.800781 13.238281 -15.078125 13.207031 -15.292969 C 13.117188 -15.597656 12.933594 -15.753906 12.6875 -15.875 C 12.503906 -15.996094 12.257812 -16.027344 11.921875 -16.027344 C 11.644531 -16.027344 11.371094 -16.058594 11.09375 -16.058594 C 10.816406 -16.058594 10.542969 -16.121094 10.265625 -16.121094 C 10.019531 -16.121094 9.746094 -16.121094 9.46875 -16.121094 C 9.195312 -16.121094 8.917969 -16.121094 8.640625 -16.121094 C 8.367188 -16.152344 8.121094 -16.152344 7.84375 -16.152344 C 7.570312 -16.152344 7.292969 -16.152344 7.019531 -16.152344 C 6.742188 -16.152344 6.464844 -16.152344 6.191406 -16.152344 C 5.914062 -16.152344 5.667969 -16.089844 5.394531 -16.121094 C 5.117188 -16.121094 4.84375 -16.179688 4.566406 -16.179688 C 4.289062 -16.210938 4.015625 -16.152344 3.738281 -16.152344 C 3.464844 -16.152344 3.1875 -16.210938 2.910156 -16.210938 C 2.636719 -16.210938 2.359375 -16.210938 2.082031 -16.210938 C 1.808594 -16.210938 1.472656 -16.210938 1.289062 -16.058594 C 1.101562 -15.875 0.980469 -15.660156 0.917969 -15.414062 C 0.828125 -15.167969 0.796875 -14.894531 0.828125 -14.679688 C 0.828125 -14.371094 0.796875 -14.097656 0.828125 -13.820312 C 0.859375 -13.546875 0.917969 -13.269531 1.164062 -13.054688 C 1.347656 -12.902344 1.625 -12.902344 1.898438 -12.871094 C 2.144531 -12.871094 2.421875 -12.808594 2.667969 -12.78125 C 3.035156 -12.78125 3.371094 -12.78125 3.675781 -12.75 C 4.074219 -12.71875 4.414062 -12.65625 4.6875 -12.625 C 5.027344 -12.59375 5.242188 -12.351562 5.269531 -12.011719 C 5.269531 -11.796875 5.300781 -11.554688 5.300781 -11.277344 C 5.300781 -11.0625 5.300781 -10.816406 5.300781 -10.574219 C 5.300781 -10.328125 5.332031 -10.082031 5.332031 -9.835938 C 5.332031 -9.5625 5.332031 -9.253906 5.332031 -9.011719 C 5.332031 -8.703125 5.300781 -8.425781 5.300781 -8.152344 C 5.300781 -7.875 5.300781 -7.570312 5.300781 -7.324219 C 5.300781 -7.019531 5.332031 -6.742188 5.332031 -6.464844 C 5.332031 -6.191406 5.300781 -5.914062 5.300781 -5.640625 C 5.300781 -5.363281 5.269531 -5.085938 5.300781 -4.78125 C 5.300781 -4.503906 5.300781 -4.230469 5.332031 -3.953125 C 5.332031 -3.675781 5.300781 -3.402344 5.332031 -3.09375 C 5.332031 -2.851562 5.300781 -2.542969 5.300781 -2.269531 C 5.300781 -1.992188 5.300781 -1.714844 5.300781 -1.410156 C 5.332031 -0.980469 5.394531 -0.703125 5.484375 -0.492188 C 5.609375 -0.121094 5.824219 -0.0625 6.191406 -0.03125 C 6.4375 -0.03125 6.742188 0 7.109375 -0.03125 C 7.507812 -0.03125 7.785156 -0.0625 8 -0.121094 C 8.398438 -0.183594 8.582031 -0.304688 8.671875 -0.582031 C 8.734375 -0.796875 8.703125 -1.101562 8.703125 -1.472656 C 8.703125 -1.777344 8.734375 -2.023438 8.703125 -2.238281 C 8.703125 -2.574219 8.671875 -2.789062 8.671875 -3.003906 C 8.671875 -3.277344 8.765625 -3.492188 8.734375 -3.769531 C 8.734375 -3.984375 8.734375 -4.199219 8.734375 -4.535156 C 8.734375 -4.75 8.703125 -4.996094 8.703125 -5.300781 C 8.703125 -5.578125 8.734375 -5.851562 8.703125 -6.128906 C 8.703125 -6.40625 8.640625 -6.679688 8.640625 -6.988281 C 8.640625 -7.261719 8.613281 -7.539062 8.613281 -7.816406 C 8.613281 -8.089844 8.582031 -8.398438 8.582031 -8.671875 C 8.582031 -8.949219 8.582031 -9.222656 8.582031 -9.53125 C 8.582031 -9.808594 8.582031 -10.082031 8.550781 -10.359375 C 8.550781 -10.632812 8.613281 -10.941406 8.613281 -11.214844 C 8.613281 -11.492188 8.582031 -11.769531 8.550781 -12.074219 C 8.550781 -12.441406 8.855469 -12.71875 9.253906 -12.71875 C 9.53125 -12.71875 9.777344 -12.75 10.019531 -12.75 Z M 10.019531 -12.75 "/></g></g></g><g fill="#000000" fill-opacity="1"><g transform="translate(181.557332, 38.702307)"><g><path d="M 2.113281 -12.566406 C 2.113281 -12.289062 2.054688 -12.011719 2.054688 -11.707031 C 2.054688 -11.429688 2.082031 -11.15625 2.082031 -10.878906 C 2.082031 -10.605469 2.082031 -10.296875 2.082031 -10.019531 C 2.082031 -9.746094 2.082031 -9.46875 2.082031 -9.164062 C 2.082031 -8.886719 2.082031 -8.613281 2.082031 -8.335938 C 2.082031 -8.027344 2.113281 -7.753906 2.113281 -7.507812 C 2.113281 -7.203125 2.054688 -6.894531 2.054688 -6.648438 C 2.054688 -6.3125 2.054688 -6.039062 2.054688 -5.824219 C 2.023438 -5.515625 2.054688 -5.242188 2.082031 -4.964844 C 2.113281 -4.6875 2.144531 -4.382812 2.175781 -4.105469 C 2.238281 -3.832031 2.328125 -3.554688 2.421875 -3.308594 C 2.511719 -3.035156 2.605469 -2.757812 2.726562 -2.511719 C 2.851562 -2.238281 3.035156 -2.023438 3.21875 -1.808594 C 3.371094 -1.59375 3.554688 -1.347656 3.769531 -1.164062 C 3.953125 -0.949219 4.199219 -0.828125 4.445312 -0.675781 C 4.6875 -0.519531 4.902344 -0.335938 5.179688 -0.214844 C 5.425781 -0.09375 5.699219 -0.0625 5.976562 0.03125 C 6.222656 0.121094 6.496094 0.183594 6.742188 0.246094 C 7.019531 0.304688 7.292969 0.367188 7.570312 0.398438 C 7.84375 0.429688 8.121094 0.492188 8.367188 0.492188 C 8.640625 0.492188 8.917969 0.460938 9.195312 0.429688 C 9.46875 0.429688 9.746094 0.398438 10.019531 0.335938 C 10.296875 0.277344 10.574219 0.214844 10.816406 0.121094 C 11.0625 0.03125 11.308594 -0.121094 11.554688 -0.246094 C 11.796875 -0.367188 12.042969 -0.492188 12.257812 -0.644531 C 12.503906 -0.796875 12.65625 -1.042969 12.871094 -1.226562 C 13.054688 -1.410156 13.300781 -1.5625 13.484375 -1.777344 C 13.636719 -1.992188 13.730469 -2.269531 13.882812 -2.511719 C 14.003906 -2.726562 14.1875 -2.972656 14.28125 -3.21875 C 14.371094 -3.464844 14.433594 -3.738281 14.496094 -4.015625 C 14.558594 -4.289062 14.585938 -4.566406 14.617188 -4.84375 C 14.648438 -5.117188 14.648438 -5.394531 14.648438 -5.667969 C 14.648438 -5.945312 14.648438 -6.222656 14.648438 -6.464844 C 14.648438 -6.773438 14.648438 -7.046875 14.648438 -7.292969 C 14.648438 -7.570312 14.679688 -7.84375 14.679688 -8.089844 C 14.679688 -8.398438 14.617188 -8.640625 14.648438 -8.886719 C 14.648438 -9.195312 14.710938 -9.46875 14.710938 -9.683594 C 14.710938 -9.992188 14.679688 -10.265625 14.679688 -10.511719 C 14.710938 -10.789062 14.742188 -11.03125 14.742188 -11.308594 C 14.742188 -11.554688 14.769531 -11.796875 14.769531 -12.105469 C 14.769531 -12.351562 14.742188 -12.59375 14.742188 -12.902344 C 14.742188 -13.148438 14.742188 -13.421875 14.742188 -13.730469 C 14.742188 -13.945312 14.710938 -14.21875 14.710938 -14.527344 C 14.742188 -14.800781 14.710938 -15.109375 14.648438 -15.324219 C 14.585938 -15.628906 14.433594 -15.84375 14.21875 -15.964844 C 13.976562 -16.089844 13.699219 -16.121094 13.390625 -16.152344 C 13.117188 -16.179688 12.839844 -16.121094 12.566406 -16.121094 C 12.167969 -16.121094 11.859375 -16.152344 11.613281 -16.058594 C 11.339844 -15.964844 11.15625 -15.753906 11.125 -15.324219 C 11.09375 -15.140625 11.125 -14.863281 11.125 -14.617188 C 11.15625 -14.371094 11.15625 -14.128906 11.15625 -13.882812 C 11.1875 -13.605469 11.15625 -13.363281 11.15625 -13.148438 C 11.1875 -12.871094 11.1875 -12.59375 11.1875 -12.351562 C 11.214844 -12.074219 11.277344 -11.828125 11.277344 -11.585938 C 11.277344 -11.308594 11.339844 -11.0625 11.339844 -10.816406 C 11.371094 -10.542969 11.339844 -10.265625 11.339844 -10.019531 C 11.371094 -9.746094 11.371094 -9.5 11.398438 -9.253906 C 11.398438 -8.980469 11.398438 -8.734375 11.398438 -8.457031 C 11.398438 -8.214844 11.460938 -7.9375 11.460938 -7.660156 C 11.460938 -7.417969 11.429688 -7.171875 11.429688 -6.894531 C 11.429688 -6.648438 11.460938 -6.375 11.460938 -6.097656 C 11.460938 -5.792969 11.339844 -5.546875 11.308594 -5.269531 C 11.277344 -4.996094 11.1875 -4.71875 11.09375 -4.472656 C 11.003906 -4.199219 10.910156 -3.953125 10.726562 -3.738281 C 10.574219 -3.523438 10.359375 -3.339844 10.113281 -3.21875 C 9.898438 -3.066406 9.652344 -2.910156 9.378906 -2.851562 C 9.132812 -2.789062 8.824219 -2.726562 8.550781 -2.757812 C 8.242188 -2.726562 7.9375 -2.757812 7.660156 -2.820312 C 7.386719 -2.910156 7.109375 -3.035156 6.894531 -3.1875 C 6.648438 -3.339844 6.4375 -3.554688 6.25 -3.769531 C 6.097656 -3.984375 6.007812 -4.261719 5.882812 -4.535156 C 5.761719 -4.8125 5.667969 -5.054688 5.609375 -5.332031 C 5.546875 -5.609375 5.578125 -5.914062 5.578125 -6.191406 C 5.546875 -6.496094 5.484375 -6.742188 5.484375 -6.988281 C 5.484375 -7.261719 5.484375 -7.539062 5.484375 -7.753906 C 5.484375 -8.058594 5.546875 -8.304688 5.546875 -8.550781 C 5.578125 -8.796875 5.546875 -9.039062 5.546875 -9.316406 C 5.546875 -9.5625 5.546875 -9.808594 5.546875 -10.113281 C 5.546875 -10.359375 5.578125 -10.605469 5.578125 -10.910156 C 5.578125 -11.15625 5.609375 -11.429688 5.609375 -11.738281 C 5.578125 -12.011719 5.546875 -12.289062 5.546875 -12.566406 C 5.546875 -12.839844 5.609375 -13.148438 5.609375 -13.421875 C 5.609375 -13.699219 5.578125 -13.976562 5.546875 -14.25 C 5.546875 -14.527344 5.578125 -14.832031 5.578125 -15.078125 C 5.578125 -15.414062 5.515625 -15.660156 5.425781 -15.8125 C 5.269531 -16.027344 5.054688 -16.089844 4.75 -16.121094 C 4.535156 -16.152344 4.289062 -16.179688 3.984375 -16.152344 C 3.707031 -16.152344 3.433594 -16.210938 3.21875 -16.210938 C 2.910156 -16.210938 2.695312 -16.121094 2.480469 -15.996094 C 2.328125 -15.875 2.175781 -15.722656 2.113281 -15.382812 C 2.082031 -15.167969 2.082031 -14.769531 2.113281 -14.402344 C 2.113281 -14.003906 2.082031 -13.605469 2.082031 -13.390625 C 2.082031 -13.148438 2.113281 -12.871094 2.113281 -12.566406 Z M 2.113281 -12.566406 "/></g></g></g><g fill="#000000" fill-opacity="1"><g transform="translate(198.379632, 38.702307)"><g><path d="M 6.34375 -6.128906 C 6.621094 -6.160156 6.925781 -6.128906 7.234375 -6.160156 C 7.539062 -6.160156 7.84375 -6.191406 8.121094 -6.222656 C 8.425781 -6.222656 8.734375 -6.160156 9.039062 -6.191406 C 9.347656 -6.191406 9.652344 -6.28125 9.929688 -6.28125 C 10.234375 -6.3125 10.542969 -6.28125 10.816406 -6.3125 C 11.09375 -6.34375 11.371094 -6.40625 11.613281 -6.496094 C 11.890625 -6.589844 12.136719 -6.679688 12.382812 -6.835938 C 12.625 -6.957031 12.839844 -7.140625 13.023438 -7.324219 C 13.238281 -7.507812 13.453125 -7.722656 13.605469 -7.9375 C 13.789062 -8.152344 13.945312 -8.367188 14.066406 -8.613281 C 14.21875 -8.855469 14.3125 -9.132812 14.402344 -9.378906 C 14.496094 -9.652344 14.585938 -9.898438 14.648438 -10.175781 C 14.710938 -10.449219 14.710938 -10.726562 14.742188 -11.003906 C 14.742188 -11.277344 14.742188 -11.554688 14.742188 -11.828125 C 14.710938 -12.136719 14.679688 -12.410156 14.617188 -12.65625 C 14.558594 -12.933594 14.496094 -13.207031 14.402344 -13.453125 C 14.3125 -13.730469 14.1875 -13.976562 14.035156 -14.21875 C 13.882812 -14.433594 13.699219 -14.648438 13.484375 -14.832031 C 13.300781 -15.015625 13.085938 -15.199219 12.839844 -15.324219 C 12.59375 -15.476562 12.351562 -15.628906 12.074219 -15.722656 C 11.828125 -15.78125 11.585938 -15.9375 11.277344 -15.964844 C 11.03125 -16.027344 10.757812 -15.996094 10.480469 -16.027344 C 10.207031 -16.089844 9.929688 -16.121094 9.652344 -16.121094 C 9.378906 -16.152344 9.101562 -16.179688 8.824219 -16.179688 C 8.582031 -16.210938 8.304688 -16.210938 8.027344 -16.210938 C 7.753906 -16.242188 7.476562 -16.210938 7.203125 -16.210938 C 6.925781 -16.242188 6.648438 -16.273438 6.40625 -16.273438 C 6.097656 -16.273438 5.824219 -16.273438 5.578125 -16.242188 C 5.300781 -16.242188 5.027344 -16.210938 4.75 -16.179688 C 4.414062 -16.152344 4.105469 -16.179688 3.863281 -16.179688 C 3.464844 -16.179688 3.15625 -16.179688 2.941406 -16.121094 C 2.605469 -16.089844 2.390625 -15.9375 2.296875 -15.566406 C 2.238281 -15.324219 2.269531 -15.046875 2.269531 -14.648438 C 2.269531 -14.371094 2.238281 -14.066406 2.238281 -13.789062 C 2.238281 -13.515625 2.269531 -13.238281 2.269531 -12.964844 C 2.269531 -12.65625 2.238281 -12.382812 2.238281 -12.105469 C 2.238281 -11.828125 2.296875 -11.523438 2.296875 -11.246094 C 2.296875 -10.972656 2.296875 -10.695312 2.296875 -10.390625 C 2.296875 -10.113281 2.269531 -9.835938 2.269531 -9.5625 C 2.296875 -9.253906 2.238281 -8.980469 2.238281 -8.703125 C 2.238281 -8.425781 2.269531 -8.121094 2.269531 -7.84375 C 2.269531 -7.570312 2.269531 -7.292969 2.269531 -6.988281 C 2.269531 -6.710938 2.269531 -6.4375 2.269531 -6.160156 C 2.269531 -5.882812 2.296875 -5.578125 2.296875 -5.300781 C 2.296875 -5.027344 2.296875 -4.75 2.296875 -4.472656 C 2.296875 -4.167969 2.359375 -3.890625 2.390625 -3.617188 C 2.390625 -3.339844 2.296875 -3.066406 2.296875 -2.789062 C 2.296875 -2.480469 2.390625 -2.207031 2.390625 -1.929688 C 2.390625 -1.5625 2.269531 -1.683594 2.328125 -0.796875 C 2.328125 -0.398438 2.574219 -0.183594 2.851562 -0.09375 C 3.15625 0.0625 3.523438 0.03125 3.769531 0.03125 C 3.953125 0.0625 4.351562 0.03125 4.75 -0.03125 C 5.210938 -0.09375 5.609375 -0.214844 5.609375 -0.429688 C 5.578125 -0.675781 5.578125 -0.917969 5.578125 -1.132812 C 5.546875 -1.378906 5.578125 -1.59375 5.578125 -1.808594 C 5.609375 -2.054688 5.546875 -2.296875 5.546875 -2.511719 C 5.546875 -2.820312 5.578125 -3.125 5.578125 -3.402344 C 5.578125 -3.675781 5.515625 -3.984375 5.515625 -4.261719 C 5.484375 -4.535156 5.515625 -4.84375 5.484375 -5.179688 C 5.484375 -5.425781 5.484375 -5.699219 5.453125 -6.039062 C 5.761719 -6.039062 6.039062 -6.128906 6.34375 -6.128906 Z M 5.425781 -9.960938 C 5.425781 -10.207031 5.453125 -10.480469 5.453125 -10.726562 C 5.453125 -11.003906 5.425781 -11.246094 5.425781 -11.492188 C 5.425781 -11.769531 5.425781 -12.011719 5.425781 -12.289062 C 5.425781 -12.535156 5.425781 -12.78125 5.394531 -13.023438 C 5.667969 -13.023438 5.945312 -13.023438 6.25 -13.023438 C 6.558594 -13.023438 6.835938 -13.023438 7.140625 -13.023438 C 7.445312 -13.023438 7.753906 -13.117188 8.027344 -13.117188 C 8.335938 -13.117188 8.640625 -13.023438 8.917969 -13.023438 C 9.222656 -12.992188 9.53125 -13.054688 9.777344 -12.992188 C 10.050781 -12.964844 10.265625 -12.808594 10.480469 -12.75 C 10.726562 -12.65625 10.941406 -12.566406 11.125 -12.410156 C 11.308594 -12.257812 11.460938 -12.074219 11.554688 -11.859375 C 11.644531 -11.644531 11.675781 -11.398438 11.675781 -11.125 C 11.675781 -10.789062 11.585938 -10.480469 11.429688 -10.207031 C 11.246094 -9.960938 11.003906 -9.746094 10.695312 -9.59375 C 10.449219 -9.5 10.113281 -9.4375 9.746094 -9.410156 C 9.5 -9.378906 9.222656 -9.316406 8.917969 -9.285156 C 8.640625 -9.285156 8.335938 -9.316406 8.027344 -9.285156 C 7.753906 -9.285156 7.476562 -9.222656 7.171875 -9.222656 C 6.894531 -9.195312 6.589844 -9.222656 6.3125 -9.222656 C 6.007812 -9.222656 5.730469 -9.195312 5.484375 -9.195312 C 5.484375 -9.46875 5.425781 -9.683594 5.425781 -9.960938 Z M 5.425781 -9.960938 "/></g></g></g><g fill="#000000" fill-opacity="1"><g transform="translate(214.405236, 38.702307)"><g><path d="M 5.640625 -12.839844 C 5.824219 -13.023438 6.066406 -13.085938 6.3125 -13.179688 C 6.558594 -13.238281 6.804688 -13.332031 7.078125 -13.332031 C 7.324219 -13.332031 7.601562 -13.332031 7.84375 -13.332031 C 8.183594 -13.300781 8.457031 -13.179688 8.734375 -13.085938 C 9.039062 -12.992188 9.347656 -12.902344 9.59375 -12.75 C 9.867188 -12.625 10.113281 -12.441406 10.390625 -12.257812 C 10.632812 -12.105469 10.910156 -11.953125 11.1875 -11.796875 C 11.460938 -11.613281 11.675781 -11.554688 11.890625 -11.554688 C 12.167969 -11.585938 12.351562 -11.675781 12.59375 -11.890625 C 12.75 -12.074219 12.933594 -12.257812 13.117188 -12.472656 C 13.332031 -12.78125 13.453125 -13.117188 13.578125 -13.390625 C 13.730469 -13.789062 13.730469 -14.097656 13.484375 -14.3125 C 13.332031 -14.433594 13.148438 -14.648438 12.871094 -14.863281 C 12.65625 -14.984375 12.441406 -15.140625 12.167969 -15.292969 C 11.953125 -15.445312 11.707031 -15.539062 11.429688 -15.660156 C 11.1875 -15.753906 10.941406 -15.875 10.664062 -15.964844 C 10.390625 -16.058594 10.144531 -16.121094 9.835938 -16.179688 C 9.59375 -16.242188 9.316406 -16.335938 9.039062 -16.363281 C 8.765625 -16.394531 8.488281 -16.363281 8.183594 -16.394531 C 7.9375 -16.394531 7.660156 -16.425781 7.355469 -16.394531 C 7.109375 -16.394531 6.804688 -16.335938 6.527344 -16.304688 C 6.25 -16.242188 5.976562 -16.179688 5.699219 -16.121094 C 5.453125 -16.027344 5.179688 -15.90625 4.933594 -15.8125 C 4.6875 -15.691406 4.414062 -15.597656 4.167969 -15.445312 C 3.953125 -15.292969 3.707031 -15.140625 3.492188 -14.957031 C 3.277344 -14.800781 3.09375 -14.558594 2.910156 -14.34375 C 2.726562 -14.160156 2.574219 -13.914062 2.421875 -13.667969 C 2.269531 -13.453125 2.175781 -13.179688 2.082031 -12.902344 C 1.992188 -12.65625 1.929688 -12.382812 1.871094 -12.105469 C 1.839844 -11.828125 1.808594 -11.554688 1.808594 -11.277344 C 1.808594 -10.972656 1.839844 -10.664062 1.898438 -10.390625 C 1.960938 -10.113281 2.054688 -9.835938 2.207031 -9.5625 C 2.328125 -9.316406 2.480469 -9.070312 2.695312 -8.855469 C 2.878906 -8.613281 3.09375 -8.425781 3.339844 -8.242188 C 3.554688 -8.089844 3.800781 -7.90625 4.074219 -7.753906 C 4.320312 -7.632812 4.566406 -7.445312 4.871094 -7.324219 C 5.148438 -7.234375 5.425781 -7.171875 5.699219 -7.078125 C 5.976562 -6.988281 6.25 -6.863281 6.527344 -6.773438 C 6.804688 -6.648438 7.078125 -6.558594 7.355469 -6.464844 C 7.660156 -6.34375 7.90625 -6.25 8.183594 -6.128906 C 8.457031 -6.039062 8.765625 -5.945312 9.011719 -5.824219 C 9.253906 -5.730469 9.5 -5.609375 9.746094 -5.484375 C 10.019531 -5.394531 10.234375 -5.269531 10.449219 -5.117188 C 10.632812 -4.933594 10.789062 -4.75 10.847656 -4.472656 C 10.878906 -4.261719 10.847656 -4.015625 10.726562 -3.707031 C 10.605469 -3.464844 10.480469 -3.277344 10.265625 -3.125 C 10.082031 -2.972656 9.835938 -2.878906 9.5625 -2.820312 C 9.347656 -2.757812 9.070312 -2.695312 8.796875 -2.695312 C 8.550781 -2.667969 8.304688 -2.695312 8 -2.726562 C 7.722656 -2.726562 7.417969 -2.757812 7.109375 -2.851562 C 6.835938 -2.941406 6.589844 -3.125 6.3125 -3.277344 C 6.066406 -3.402344 5.761719 -3.523438 5.515625 -3.675781 C 5.269531 -3.863281 5.027344 -4.046875 4.78125 -4.230469 C 4.503906 -4.414062 4.289062 -4.628906 4.074219 -4.75 C 3.769531 -4.964844 3.554688 -5.027344 3.308594 -4.964844 C 3.09375 -4.902344 2.910156 -4.6875 2.695312 -4.472656 C 2.511719 -4.320312 2.328125 -4.105469 2.144531 -3.921875 C 1.929688 -3.675781 1.746094 -3.492188 1.65625 -3.277344 C 1.53125 -3.035156 1.53125 -2.789062 1.625 -2.511719 C 1.683594 -2.328125 1.839844 -2.113281 2.054688 -1.898438 C 2.175781 -1.777344 2.453125 -1.65625 2.757812 -1.410156 C 2.941406 -1.289062 3.125 -1.042969 3.402344 -0.890625 C 3.617188 -0.765625 3.890625 -0.675781 4.167969 -0.550781 C 4.414062 -0.429688 4.628906 -0.246094 4.902344 -0.152344 C 5.148438 -0.03125 5.425781 0.03125 5.699219 0.09375 C 5.976562 0.183594 6.25 0.214844 6.527344 0.246094 C 6.804688 0.304688 7.078125 0.304688 7.386719 0.335938 C 7.660156 0.335938 7.9375 0.335938 8.214844 0.335938 C 8.488281 0.304688 8.765625 0.304688 9.039062 0.277344 C 9.316406 0.246094 9.59375 0.214844 9.867188 0.152344 C 10.144531 0.09375 10.390625 -0.03125 10.664062 -0.121094 C 10.941406 -0.214844 11.214844 -0.246094 11.460938 -0.367188 C 11.707031 -0.492188 11.953125 -0.644531 12.195312 -0.796875 C 12.410156 -0.949219 12.65625 -1.074219 12.871094 -1.257812 C 13.085938 -1.441406 13.300781 -1.65625 13.453125 -1.871094 C 13.636719 -2.082031 13.789062 -2.328125 13.914062 -2.574219 C 14.035156 -2.820312 14.128906 -3.066406 14.21875 -3.339844 C 14.28125 -3.617188 14.28125 -3.890625 14.3125 -4.199219 C 14.3125 -4.472656 14.28125 -4.75 14.25 -4.996094 C 14.1875 -5.300781 14.1875 -5.578125 14.097656 -5.824219 C 14.003906 -6.097656 13.882812 -6.34375 13.761719 -6.589844 C 13.636719 -6.835938 13.453125 -7.046875 13.269531 -7.261719 C 13.117188 -7.476562 12.964844 -7.691406 12.75 -7.875 C 12.566406 -8.058594 12.320312 -8.242188 12.105469 -8.398438 C 11.859375 -8.519531 11.613281 -8.640625 11.339844 -8.734375 C 11.09375 -8.855469 10.847656 -8.949219 10.574219 -9.011719 C 10.265625 -9.101562 9.992188 -9.222656 9.714844 -9.316406 C 9.410156 -9.410156 9.132812 -9.5 8.855469 -9.59375 C 8.582031 -9.683594 8.273438 -9.777344 8 -9.867188 C 7.785156 -9.960938 7.507812 -10.019531 7.261719 -10.113281 C 7.019531 -10.207031 6.804688 -10.328125 6.558594 -10.449219 C 6.3125 -10.542969 6.097656 -10.664062 5.882812 -10.816406 C 5.667969 -10.972656 5.484375 -11.15625 5.394531 -11.371094 C 5.269531 -11.585938 5.210938 -11.859375 5.269531 -12.136719 C 5.363281 -12.441406 5.484375 -12.65625 5.640625 -12.839844 Z M 5.640625 -12.839844 "/></g></g></g></svg>